<svg xmlns="http://www.w3.org/2000/svg" width="1388" height="593" fill="none"><g clip-path="url(#a)"><g clip-path="url(#b)"><mask id="e" fill="#fff"><path d="M80 95.179C80 77.959 93.96 64 111.179 64H1153.82c17.22 0 31.18 13.96 31.18 31.179V593H80z"/></mask><path fill="url(#c)" d="M80 95.179C80 77.959 93.96 64 111.179 64H1153.82c17.22 0 31.18 13.96 31.18 31.179V593H80z"/><g clip-path="url(#d)"><path fill="#F67ACB" d="m909.774 327-27.269 36.678 20.719 27.811-11.629 8.867-32.884-43.933L815 415h160.408z"/></g><path stroke="#fff" d="M705.5 183.5h541v375h-541z"/><path fill="#fff" d="M222.378 116.245c-3.808 0-6.372-2.435-6.372-5.466h3.134c.026 1.399 1.347 2.669 3.316 2.669 1.813 0 2.979-1.114 2.979-2.513 0-1.244-1.062-1.969-2.565-2.383l-2.228-.622c-3.833-.984-4.507-3.29-4.507-4.844 0-3.16 2.772-5.31 6.062-5.31 3.264 0 5.828 2.02 5.828 5.362h-3.134c0-1.477-1.114-2.539-2.772-2.539-1.528 0-2.798 1.036-2.798 2.435 0 .492.156 1.528 2.202 2.072l2.124.622c2.798.777 4.948 2.228 4.948 5.077 0 3.264-2.72 5.44-6.217 5.44M234.589 103.837h2.564v2.383h-2.564v9.715h-3.005v-9.715h-2.176v-2.383h2.176v-4.456h3.005zM245.15 103.526c.725 0 1.503.156 1.969.415l-.596 2.849a3.8 3.8 0 0 0-1.761-.44c-1.969 0-3.057 1.969-3.057 5.362v4.223h-3.031v-12.098h3.005v2.59c.647-2.02 1.969-2.901 3.471-2.901M256.79 110.313v-6.476h3.005v12.098h-3.005v-1.891c-.622 1.528-2.539 2.201-3.756 2.201-3.109 0-4.845-2.098-4.845-5.621v-6.787h3.005v6.658c0 1.942 1.166 2.953 2.513 2.953 1.373 0 3.083-.777 3.083-3.135M268.397 116.245c-3.497 0-6.58-2.538-6.58-6.372s3.083-6.347 6.58-6.347c2.098 0 3.808.933 4.922 2.332l-2.124 1.683c-.622-.751-1.658-1.217-2.746-1.217-2.098 0-3.601 1.502-3.601 3.549 0 2.02 1.503 3.575 3.601 3.575 1.088 0 2.124-.467 2.746-1.218l2.124 1.684c-1.114 1.399-2.824 2.331-4.922 2.331M279.217 103.837h2.564v2.383h-2.564v9.715h-3.005v-9.715h-2.176v-2.383h2.176v-4.456h3.005zM290.063 103.526c3.394 0 6.14 2.668 6.14 6.347 0 3.678-2.746 6.372-6.14 6.372-2.02 0-3.937-1.036-4.818-2.694v2.384h-1.658V97.257h1.658v8.937c.907-1.658 2.772-2.668 4.818-2.668m-.129 11.139c2.564 0 4.637-2.124 4.637-4.818 0-2.668-2.073-4.741-4.637-4.741-2.409 0-4.689 1.891-4.689 4.819 0 2.797 2.176 4.74 4.689 4.74M304.239 116.245c-3.445 0-6.32-2.538-6.32-6.372s2.875-6.347 6.32-6.347 6.347 2.513 6.347 6.347-2.901 6.372-6.347 6.372m0-1.58c2.539 0 4.689-1.943 4.689-4.792 0-2.85-2.15-4.767-4.689-4.767-2.564 0-4.662 1.917-4.662 4.767 0 2.849 2.098 4.792 4.662 4.792M318.59 116.245c-3.445 0-6.321-2.538-6.321-6.372s2.876-6.347 6.321-6.347c3.446 0 6.347 2.513 6.347 6.347s-2.901 6.372-6.347 6.372m0-1.58c2.539 0 4.689-1.943 4.689-4.792 0-2.85-2.15-4.767-4.689-4.767-2.564 0-4.663 1.917-4.663 4.767 0 2.849 2.099 4.792 4.663 4.792M330.869 116.245c-2.098 0-4.197-1.217-4.404-3.523h1.528c.182 1.011 1.114 2.047 2.876 2.047 1.735 0 2.798-.907 2.798-2.124 0-.985-.674-1.632-1.917-1.943l-1.736-.415c-1.71-.414-3.083-1.295-3.083-3.316 0-1.968 1.684-3.445 3.99-3.445 2.02 0 3.885 1.114 3.963 3.29h-1.606c-.078-1.088-1.14-1.813-2.331-1.813-1.399 0-2.358.855-2.358 1.994s.985 1.632 1.865 1.84l1.788.44c2.357.57 3.082 1.995 3.082 3.394 0 2.15-1.942 3.574-4.455 3.574M340.239 103.837h2.772v1.425h-2.772v10.673h-1.632v-10.673h-2.202v-1.425h2.202v-4.533h1.632z"/><path fill="#F67ACB" d="M205.016 98.524h-11.108c-.454 0-.551.032-.81.293l-8.807 8.228c-.259.261-.291.359-.291.816v4.833q0 4.113 4.08 4.113h11.108c.453 0 .55-.032.809-.293l8.808-8.228c.258-.261.29-.359.29-.816v-4.832q0-4.114-4.079-4.114M1167.77 105.061h-1.28a2.6 2.6 0 0 0-.4-.972 2.5 2.5 0 0 0-.68-.702 2.9 2.9 0 0 0-.88-.434 3.5 3.5 0 0 0-1.01-.145c-.65 0-1.23.162-1.75.486q-.765.485-1.23 1.431c-.3.63-.46 1.404-.46 2.32s.16 1.689.46 2.32q.465.945 1.23 1.431c.52.324 1.1.486 1.75.486.35 0 .68-.049 1.01-.145.32-.096.62-.239.88-.429.27-.193.5-.429.68-.708.19-.282.33-.606.4-.971h1.28a4.2 4.2 0 0 1-.52 1.452q-.39.64-.96 1.09c-.37.296-.8.522-1.27.677a4.8 4.8 0 0 1-1.5.232c-.91 0-1.71-.22-2.41-.661-.71-.441-1.26-1.068-1.66-1.881s-.61-1.777-.61-2.893.21-2.081.61-2.894.95-1.44 1.66-1.88c.7-.441 1.5-.662 2.41-.662q.795 0 1.5.233c.47.155.9.382 1.27.682q.57.444.96 1.085c.25.423.43.907.52 1.452m4.7 7.44q-1.08 0-1.89-.511a3.44 3.44 0 0 1-1.26-1.432q-.45-.92-.45-2.149 0-1.24.45-2.165t1.26-1.436q.81-.512 1.89-.512c.71 0 1.34.171 1.88.512q.81.511 1.26 1.436t.45 2.165q0 1.23-.45 2.149-.45.92-1.26 1.432c-.54.341-1.17.511-1.88.511m0-1.095c.54 0 .99-.14 1.34-.419q.525-.419.78-1.1c.17-.455.25-.948.25-1.478 0-.531-.08-1.025-.25-1.483a2.5 2.5 0 0 0-.78-1.111c-.35-.282-.8-.424-1.34-.424q-.825 0-1.35.424t-.78 1.111c-.17.458-.25.952-.25 1.483 0 .53.08 1.023.25 1.478q.255.681.78 1.1t1.35.419m6.24-3.845v4.775h-1.22v-7.937h1.17v1.24h.11c.18-.403.47-.726.85-.971.37-.248.86-.372 1.46-.372q.81 0 1.41.331c.41.217.72.547.94.992.23.441.34.999.34 1.674v5.043h-1.22v-4.961c0-.623-.16-1.109-.49-1.457-.32-.351-.76-.527-1.33-.527-.39 0-.74.085-1.04.254-.31.168-.54.415-.72.738-.18.324-.26.717-.26 1.178m10.3-3.162v1.034h-4.11v-1.034zm-2.91-1.901h1.22v7.564q0 .517.15.775.15.254.39.341.24.083.51.083.21 0 .33-.021l.21-.041.25 1.095a2.8 2.8 0 0 1-.91.145c-.35 0-.68-.074-1.01-.222s-.6-.374-.82-.677c-.21-.303-.32-.685-.32-1.147zm6.65 10.024c-.51 0-.96-.095-1.37-.284a2.36 2.36 0 0 1-.98-.832q-.36-.547-.36-1.323 0-.682.27-1.106.27-.43.72-.671.45-.243.99-.362c.36-.083.73-.148 1.1-.197q.72-.093 1.17-.139.45-.051.66-.171.21-.119.21-.413v-.041c0-.51-.14-.906-.41-1.189q-.42-.423-1.26-.423c-.58 0-1.04.127-1.37.382s-.56.527-.7.816l-1.15-.413c.2-.482.48-.858.82-1.126q.525-.408 1.14-.569c.41-.11.82-.165 1.22-.165.25 0 .55.031.88.093q.495.088.96.367.48.28.78.842c.21.376.31.878.31 1.509v5.229h-1.22v-1.075h-.06c-.08.172-.22.357-.41.553s-.45.363-.77.501q-.48.207-1.17.207m.18-1.096c.48 0 .89-.094 1.22-.284.34-.189.59-.434.76-.734.17-.299.25-.614.25-.945v-1.116c-.05.062-.16.119-.34.17q-.255.073-.6.13c-.22.034-.44.065-.65.093q-.315.035-.51.062c-.32.041-.62.108-.89.201-.27.09-.5.226-.66.408-.17.179-.25.424-.25.734 0 .424.15.744.47.961q.48.32 1.2.32m8.69-7.027v1.034h-4.11v-1.034zm-2.91-1.901h1.22v7.564q0 .517.15.775.15.254.39.341.24.083.51.083a2 2 0 0 0 .54-.062l.25 1.095c-.08.031-.2.062-.35.093-.15.035-.33.052-.56.052-.35 0-.68-.074-1.01-.222s-.6-.374-.82-.677c-.21-.303-.32-.685-.32-1.147zm7.45 10.003c-.72 0-1.34-.17-1.89-.511q-.795-.512-1.26-1.432-.45-.92-.45-2.149 0-1.24.45-2.165.465-.925 1.26-1.436c.55-.341 1.17-.512 1.89-.512s1.34.171 1.88.512q.81.511 1.26 1.436c.31.617.46 1.338.46 2.165 0 .82-.15 1.536-.46 2.149q-.45.92-1.26 1.432c-.54.341-1.16.511-1.88.511m0-1.095c.55 0 .99-.14 1.34-.419q.54-.419.78-1.1c.17-.455.26-.948.26-1.478 0-.531-.09-1.025-.26-1.483a2.37 2.37 0 0 0-.78-1.111c-.35-.282-.79-.424-1.34-.424-.54 0-.99.142-1.34.424q-.525.424-.78 1.111c-.17.458-.26.952-.26 1.483 0 .53.09 1.023.26 1.478q.255.681.78 1.1c.35.279.8.419 1.34.419"/><path stroke="#F67ACB" stroke-width="1.039" d="M1133.32 89.463h101.846v34.746H1133.32z"/><path fill="#fff" d="M459.339 105.571h49.886v2.079h-49.886zM550.796 105.571h49.886v2.079h-49.886zM642.253 105.571h49.886v2.079h-49.886z"/><path stroke="#F67ACB" stroke-linecap="round" stroke-linejoin="round" stroke-width="1.559" d="m704.611 104.532 4.157 4.157 4.157-4.157"/><path fill="#fff" d="M762.811 105.571h49.886v2.079h-49.886z"/><path stroke="#F67ACB" stroke-linecap="round" stroke-linejoin="round" stroke-width="1.559" d="m825.168 104.532 4.157 4.157 4.157-4.157"/><path fill="#fff" d="M883.368 105.571h49.886v2.079h-49.886z"/><path stroke="#F67ACB" stroke-linecap="round" stroke-linejoin="round" stroke-width="1.559" d="m945.725 104.532 4.157 4.157 4.158-4.157"/><path fill="#fff" d="M1003.92 105.571h49.886v2.079h-49.886z"/><path fill="#F67ACB" d="M590.532 319.997q-.24-.01-.387-.278a.63.63 0 0 1-.144-.347q-.01-.2.174-.733.186-.552.618-1.673.235-.75.371-1.084.137-.354.144-.514.01-.22.056-.358a.8.8 0 0 0 .074-.296q.12.005.25-.209.13-.215.228-.59.096-.336.165-.533a1.1 1.1 0 0 0 .094-.296q.106-.156.223-.49.135-.334.397-.803.187-.591.417-1.222.231-.65.456-1.2.247-.568.402-.882a9 9 0 0 1 .379-.843q.132-.255.016-.34-.135-.106-.044-.343.091-.235.464-.519.232-.249.397-.342a.65.65 0 0 1 .405-.101q.26.012.737.074.359.037.758.056l.52.024q.176.088.431.2.256.092.452.181.216.09.213.15-.005.12.073.164l.198.049q.14.006.369.237.23.212.476.543.245.312.369.658.145.347.211.65.086.304-.04.859a3.2 3.2 0 0 1-.128.595q-.074.297-.158.393a1 1 0 0 0-.229.19q-.106.114-.111.215-.003.08-.154.313a10 10 0 0 1-.891 1.08 6 6 0 0 1-.524.496 4 4 0 0 1-.647.571 7 7 0 0 1-.641.43q-.53.216-1.181.426-.63.211-1.217.344-.567.133-.945.096-.584.053-.767.125-.162.052-.256.328-.111.255-.224.531-.093.255-.097.355a10 10 0 0 0-.223.491q-.159.393-.363.924-.184.532-.369 1.044-.184.512-.28.848-.093.276-.214.31a.7.7 0 0 1-.303.046m2.765-6.078q.076.084.619.049a4.7 4.7 0 0 0 1.172-.246 7 7 0 0 0 .815-.303q.429-.18.82-.402.206-.131.622-.472t.839-.822q.065-.097.218-.37.173-.292.305-.547.193-.271.398-.802.206-.551.122-.915-.075-.525-.474-.983a2.08 2.08 0 0 0-.971-.666 4 4 0 0 0-.735-.114 3.5 3.5 0 0 0-.622.031q-.324.085-.493.257-.148.174-.415.742-.152.273-.439.84-.285.547-.489 1.039-.42 1.301-.82 2.144-.379.823-.469 1.039a.75.75 0 0 1-.034.319q-.044.078.031.182m6.759 4.858a1 1 0 0 1-.246-.291q-.054-.142.025-.54.085-.557.205-.971.12-.435.286-.988.051-.238.258-.809.226-.57.538-1.236.311-.667.619-1.253.308-.606.522-.897a.53.53 0 0 1 .384-.082q.239.031.391.198.211.19.03.642-.16.433-.664 1.371-.264.528-.397.803-.132.253-.115.315.018.04.182-.052.13-.215.463-.479.333-.285.706-.548.373-.262.703-.468.33-.205.452-.259.165-.093.367-.143.224-.07.305-.106.47-.199.947-.117t.583.388a.35.35 0 0 0 .108.245l.116.086q.08.003.078.063l.017.061q-.008.14-.228.17-.201.01-.522.016a1.6 1.6 0 0 0-.464.078q-.202.07-.489.178-.779.404-1.498.791a6.3 6.3 0 0 0-1.37 1.058 3 3 0 0 0-.298.366l-.322.466q-.104.095-.22.43-.115.334-.21.651a3 3 0 0 0-.077.357l-.069.197a1.2 1.2 0 0 1-.216.35q-.255.309-.415.301t-.465-.342m8.18.781a.8.8 0 0 1-.415-.12 8 8 0 0 1-.346-.296q-.361-.418-.505-.784a1.27 1.27 0 0 1-.066-.724.6.6 0 0 0 .054-.298l.007-.16q-.095-.105-.054-.123a.5.5 0 0 0 .085-.116q.12.006.09-.216-.032-.162.193-.692t.546-.995q.13-.195.384-.503.256-.329.55-.635.316-.326.565-.515.519-.396.907-.578.39-.183.833-.262.445-.08.604-.072.18.009.465.342.45.22.637.51.207.29.242.832.032.603-.164 1.374-.175.753-1.027 1.854-.532.696-.969 1.037a8 8 0 0 1-1.031.633 4.5 4.5 0 0 1-.778.384 3.3 3.3 0 0 1-.807.123m2.016-2.029q.505-.518.807-.984.322-.465.616-1.193.09-.216.125-.534a3 3 0 0 0 .009-.621q-.007-.3-.125-.346-.233-.15-.575-.107-.342.025-.757.346a5 5 0 0 0-1.139 1.248q-.495.738-.98 1.697-.332.705-.194 1.152.16.428.726.334.585-.113 1.487-.992m8.759 2.629a2 2 0 0 1-.239-.031.45.45 0 0 1-.232-.191q-.282-.374-.351-.617-.069-.244.012-.7.054-.299.064-.518.031-.239.059-.398-.077-.083-.305.106-.209.17-.581.434-.716.747-1.275 1.142-.537.375-.964.496a2.1 2.1 0 0 1-.802.043.8.8 0 0 1-.527-.305 1.4 1.4 0 0 1-.229-.672 4.6 4.6 0 0 1 .04-.859q.11-.656.338-1.245.248-.59.761-1.306.238-.39.616-.753a5 5 0 0 1 .851-.661 3.5 3.5 0 0 1 .901-.419q.468-.157.948-.156.481-.018.856.12.233.13.374.138.159.007.249-.189.106-.155.222-.47.116-.335.266-.569l.5-1.278q.245-.53.532-1.116.288-.588.687-1.43.37-.624.594-.713.225-.11.492.183.209.27.132.607-.075.317-.408 1.022-.15.213-.259.408a9 9 0 0 0-.306.567q-.29.606-.532 1.096a20 20 0 0 0-.51 1.078q-.096.315-.254.729-.14.414-.236.749a6 6 0 0 1-.167.593q-.072.257-.152.254-.168.172-.329.625a9 9 0 0 0-.283.908q-.102.475-.177.793a6 6 0 0 0-.088.616q-.039.38-.055.738l-.022.48a5 5 0 0 1-.046.558q-.026.12-.165.113m-4.197-1.456q.419.019.895-.319.497-.338.996-.755.313-.266.674-.709.381-.443.722-.888.361-.444.577-.774.216-.35.22-.43.005-.1-.174-.148a2 2 0 0 0-.417-.06 1 1 0 0 0-.361.003 2.6 2.6 0 0 0-.897.359q-.434.28-.961.857-.55.615-.92 1.278-.352.665-.453 1.121-.101.454.099.465m11.613 1.96q-.144.073-.377-.077a1.8 1.8 0 0 1-.42-.44 1.8 1.8 0 0 1-.176-.529 6 6 0 0 1-.003-.781q.038-.4-.016-.521-.034-.123-.222.029-.187.132-.646.551-.523.476-.995.735-.453.26-.732.226-.14-.006-.313-.155a2.3 2.3 0 0 1-.282-.393 4 4 0 0 1-.217-.491q-.1-.445.012-1.12.132-.696.387-1.444.255-.749.566-1.415.332-.666.651-1.071.34-.405.578-.394.16.008.273.173.133.167.256.512.073.144.049.243-.005.1-.171.232a5 5 0 0 0-.453.7q-.242.47-.488 1.018-.226.55-.409 1.063a8 8 0 0 0-.26.848q-.075.318.005.321.28.014.67-.189.411-.222.786-.544.438-.4.782-.885.362-.483.728-1.027.279-.388.58-.854.323-.466.411-.662.305-.507.452-.68.15-.193.352-.244l.28.013q.119.026.271.193.156.087.173.168a.5.5 0 0 1 .012.161q-.089.196-.287.587-.178.372-.266.549-.42.841-.838 1.663a7.6 7.6 0 0 0-.597 1.654 3.4 3.4 0 0 0-.051.658q.023.361.096.525l.127.286q.093.144.208.25.174.128.048.263a.83.83 0 0 1-.534.295m5.598-.221a1.25 1.25 0 0 1-.604.073q-.338-.036-.908-.263a.5.5 0 0 1-.176-.088 3 3 0 0 1-.251-.212 1.5 1.5 0 0 1-.186-.309q-.298-.474-.196-1.371.1-.896.659-2.131.154-.293.455-.74a18 18 0 0 1 .618-.812q.318-.386.441-.44l.224-.07q.223-.069.571-.234a5 5 0 0 1 .223-.069q.142-.034.283-.047a.7.7 0 0 1 .24.011q.398.038.805.338.428.28.69.652.264.353.152.608-.001.04-.127.154-.105.095-.25.209a1.4 1.4 0 0 0-.209.19q-.105.115-.284.087a.5.5 0 0 1-.293-.173.77.77 0 0 1-.121-.407q-.033-.161-.286-.313l-.233-.151q-.16-.007-.473.278a5 5 0 0 0-.591.654 3.4 3.4 0 0 0-.659.83 7 7 0 0 0-.463.899l-.227.59q-.09.196-.046.559.044.362.119.446.078.043.399.039.34-.005.803-.043.463-.058.907-.138a4.3 4.3 0 0 0 .73-.187q.39-.222.672-.249.281-.027.419.02.216.09.25.231.033.142-.115.315-.147.154-.495.318a3.4 3.4 0 0 0-.596.333q-.248.168-.253.268a.36.36 0 0 0-.182.052q-.082.036-.141.013a3 3 0 0 0-.323.045q-.282.048-.585.113a2 2 0 0 0-.387.122m6.137.666a1.1 1.1 0 0 1-.449-.241 3 3 0 0 1-.379-.458 2 2 0 0 1-.199-.47q.002-.04-.055-.103l-.037-.062q-.078-.063-.076-.524.022-.478.109-1.056.087-.576.183-.912.114-.315.339-.845.226-.55.386-.984l.593-1.133-.789-.257a.5.5 0 0 1-.232-.171.4.4 0 0 1-.071-.204q.008-.16.198-.371.19-.231.271-.228.099.025.358.037.28.013.541.005.26-.008.321-.025a1 1 0 0 0 .165-.092.5.5 0 0 0 .13-.215l.198-.391q.09-.197.24-.429.153-.253.24-.43.109-.174.323-.485.107-.135.236-.33.129-.194.315-.325.188-.152.366-.123.2.009.488.283.15.207.166.308.015.1-.178.372a6 6 0 0 1-.411.661q-.216.331-.411.662-.34.425-.143.494.196.07 1.122-.028.585-.074.837.099.253.152.277.493.038.482-.127.575-.164.093-.923.057a8 8 0 0 1-.824.062l-.499-.023a6 6 0 0 1-.341.004 1 1 0 0 0-.242.029.43.43 0 0 0-.246.129 1.6 1.6 0 0 0-.151.233q-.084.076-.259.408a8 8 0 0 1-.434.721 20 20 0 0 0-.557 1.656q-.238.81-.394 1.583-.103.496-.013.701.091.184.51.243.218.03.699.033.501-.017.785-.084.223-.09.468-.178.246-.11.451-.22l.369-.183.185-.111q.108-.156.225-.09t.186.309q-.012.24-.124.495-.111.255-.767.585-.925.518-1.69.602-.744.065-1.259-.058m10.293-.363a.7.7 0 0 1-.198-.05l-.097-.064a.5.5 0 0 0-.051-.203.7.7 0 0 1-.031-.201q-.135-.087-.152-.168-.015-.1.075-.317.129-.193.349-.624.222-.45.465-.96.245-.529.469-1.039l.38-.863q.158-.374.181-.452a.5.5 0 0 1 .07-.197.8.8 0 0 1 .149-.194q.166-.132.34-.004.175.108.283.374.129.246.115.546-.006.139-.233.71-.226.55-.602 1.313-.356.765-.792 1.545-.327.566-.414.722-.087.135-.306.126m3.288-7.436q-.24-.01-.511-.204a2.2 2.2 0 0 1-.437-.501 1.16 1.16 0 0 1-.152-.607q.004-.1.133-.275l.256-.348q.129-.175.13-.214.16.007.239.031a.5.5 0 0 1 .236.091q.197.51.501.844.326.336.315.555-.02.44-.106.556-.085.096-.604.072m.607 7.857a1.5 1.5 0 0 1-.111-.206.6.6 0 0 1-.03-.201.3.3 0 0 0-.016-.101q.003-.06-.077-.064-.057-.063.101-.456.18-.411.445-.94.284-.528.567-1.015.304-.506.498-.798a.24.24 0 0 0 .127-.154q.045-.119.006-.12l.108-.175a1.6 1.6 0 0 1 .192-.251q.172-.273.265-.549.094-.296.064-.497-.077-.104-.177-.068l-.102.035a3 3 0 0 0-.244.069 1 1 0 0 0-.265.107q-.474.299-.633.271-.158-.047-.336-.536-.069-.223-.045-.322t.17-.213a.8.8 0 0 1 .308-.165q.142-.054.226-.11a2.5 2.5 0 0 1 .368-.183q.163-.053.244-.069.527-.135.882-.019.354.117.515.544.264.353.244.792-.02.42-.326.966l-.213.291q-.11.195-.049.198.08.003.186-.132.063-.076.251-.228.187-.152.247-.149l.041-.018q.06-.018.067-.157l.126-.115.082-.056q.08.004.308-.166.25-.188.581-.433.227-.15.407-.141.466-.119.725.334.28.453.247 1.152l-.47 1.06.76-.846q.128-.154.253-.269.145-.113.249-.188.047-.138.128-.155l.08-.016.04.002q.042-.018.044-.078a1.3 1.3 0 0 1 .226-.13.44.44 0 0 0 .167-.152q.346-.125.622-.011.276.093.456.521a1.1 1.1 0 0 1 .14.427q.012.181-.005.541-.054.298-.102.475l-.056.338q-.028.18-.083.497a1 1 0 0 0-.115.335l-.016.34a2 2 0 0 0 .003.36q.016.081.156.087.283-.046.772-.244.511-.216.761-.425.313-.266.532-.256.241-.009.29.234.036.081-.157.353-.173.272-.404.522-.212.25-.312.246-.06-.003-.145.113a.7.7 0 0 1-.188.151 5 5 0 0 1-.291.247.39.39 0 0 1-.286.107.5.5 0 0 0-.202.051.7.7 0 0 1-.242.029q-.202.05-.616-.089-.395-.138-.494-.584a3.5 3.5 0 0 1-.107-.705 3.6 3.6 0 0 1 .066-.998q.096-.357.131-.655.033-.299.099-.416l.013-.28q.01-.239-.049-.242-.08-.005-.393.282-.293.267-.713.688a28 28 0 0 0-.802.883 10 10 0 0 0-.659.831 2.3 2.3 0 0 0-.345.524q-.154.314-.216.351-.147.153-.342.024a1.2 1.2 0 0 1-.322-.395 1 1 0 0 1-.07-.204.8.8 0 0 1 .012-.26q.048-.177.164-.513.135-.333.364-.944.251-.669.436-1.201l.206-.551q.003-.08-.307.146a13 13 0 0 0-.726.527q-.189.211-.63.631-.44.42-.965.957t-1.014 1.134q-.617.792-.865.961-.228.17-.435-.12m11.812.568a.6.6 0 0 0-.188-.249q-.115-.105-.112-.186a.6.6 0 0 0-.012-.16.25.25 0 0 0-.072-.184q-.094-.124.045-.538.14-.434.449-1.041.31-.625.721-1.308.168-.152.339-.404t.256-.329a.2.2 0 0 1 .066-.137q.064-.077.144-.073l.005-.12q.006-.1.196-.331a8 8 0 0 1 .504-.498q.293-.286.605-.532.312-.266.518-.377a2.04 2.04 0 0 1 .875-.299q.462-.039.77.236l.19.209.305.334q.192.17.384.358l.708.694-.406.982q-.296.787-.204 1.392.112.606.351 1.058.09.224.38.438.31.215.588.267a.66.66 0 0 1 .295.134q.135.107.125.326a.57.57 0 0 1-.095.316q-.086.117-.287.147a1.75 1.75 0 0 1-1.224-.377q-.541-.425-.978-1.367a3 3 0 0 1-.199-.45 4 4 0 0 1-.12-.446l-.317.366a7 7 0 0 1-.357.364q-1.485 1.373-2.548 1.824-1.04.432-1.7-.039m.772-1.086q-.007.14.419.02.447-.14.965-.516.707-.548 1.418-1.215.732-.668 1.179-1.247l.473-.699q-.179-.469-.411-.64-.212-.19-.371-.197-.26-.012-.801.443a9.6 9.6 0 0 0-1.139 1.229 16 16 0 0 0-1.18 1.707q-.219.39-.396.762zm10.057 6.133q-.388.142-.844.061a2.5 2.5 0 0 1-.867-.3 3.4 3.4 0 0 1-.734-.575 2 2 0 0 1-.28-.453 3.6 3.6 0 0 1-.194-.55q-.048-.263.034-.299.083-.056.221-.029.139.025.257.072.137.066.133.146.116.106.406.319.29.234.448.281.413.16.613.149a.7.7 0 0 0 .366-.123 2 2 0 0 0 .531-.657q.199-.39.431-1.081l.072-.257q.194-.732.433-1.561.239-.83.401-1.303.121-.455.088-.617-.012-.16-.182.052a1.6 1.6 0 0 0-.224.07l-.286.126-.49.218q-.245.089-.407.121a2 2 0 0 0-.3.006l-.14-.006q-.165.093-.578-.047a2.4 2.4 0 0 1-.701-.433 7 7 0 0 1-.243-.372.8.8 0 0 1-.087-.284 4 4 0 0 1 .002-.48q-.005-.321.343-.905.368-.604.872-1.121a6.4 6.4 0 0 1 1.016-.734 7.6 7.6 0 0 1 1.229-.604q.631-.231 1.03-.192.198.029.377.078.178.028.391.198.273.153.386.318.113.166.291.634.105.325.15.648.045.303.033.582-.015.3-.105.536a.96.96 0 0 1-.238.369.3.3 0 0 0-.1.016.2.2 0 0 0-.081.016.6.6 0 0 1-.202.03q-.06-.002-.146.134a.9.9 0 0 0-.135.314 2 2 0 0 1-.071.237q-.025.119-.07.217t-.088.176a.3.3 0 0 0-.025.099.2.2 0 0 1-.025.099 1.627 1.627 0 0 0-.196.351 1 1 0 0 0-.054.298l-.09.216a6 6 0 0 1-.137.354 1 1 0 0 0-.049.198l-.098.396a1.6 1.6 0 0 1-.112.255q-.045.098-.095.316-.049.198-.131.655-.478 1.699-.918 2.54-.441.86-.831 1.082m-1.042-7.316q.51.224 1.077.09.566-.134 1.312-.66.475-.318.795-.744.34-.444.503-.917.114-.296.079-.417-.033-.142-.252-.172-.336-.096-.864.08a5.2 5.2 0 0 0-1.083.47q-.106.135-.252.249a3 3 0 0 1-.269.188l-.103.055a1 1 0 0 1-.064.097q-.023.059-.105.095-.208.171-.425.521a3.7 3.7 0 0 0-.331.666q-.095.315-.018.399m7.778 3.865a1.8 1.8 0 0 1-1.408-.726q-.527-.705-.461-1.703.074-.718.351-1.526a8.5 8.5 0 0 1 .753-1.566q.456-.76.982-1.316t1.077-.771q.205-.09.427-.141.243-.048.483-.037.22.01.455.101.237.07.393.158.334.156.504.364.171.208.291.634.042.383.035.542a1.8 1.8 0 0 1-.122.475 4.5 4.5 0 0 1-.677 1.21 3.1 3.1 0 0 1-1.06.832 1.4 1.4 0 0 1-.387.142q-.202.032-.421.021a2.3 2.3 0 0 1-.773-.176 1.4 1.4 0 0 1-.558-.487l-.132-.166-.068.157q-.225.53-.366.984a4 4 0 0 0-.139.835q-.01.239.019.461.05.222.142.387a.5.5 0 0 0 .252.192q.198.049.417.059l.28.013q.16-.012.303-.066.346-.103.552-.234a9 9 0 0 0 .453-.28l.082-.036-.02-.001q.245-.109.431-.22l.205-.111q.08.004.165-.092.163-.073.396.078.253.151.243.372-.024.1-.194.311a3.3 3.3 0 0 1-.377.363q-.189.171-.309.186a.8.8 0 0 1-.144.073.4.4 0 0 0-.163.073l.02.001q-.192.23-.371.223l-.16-.008q-.087.137-.534.296a2.5 2.5 0 0 1-.867.12m1.103-4.354q.36.018.629-.171.29-.206.502-.457.425-.52.507-1.017.105-.516-.086-.725a.5.5 0 0 0-.217-.07q-.08-.024-.343.044-.182.031-.513.276a9 9 0 0 0-.666.55q-.314.306-.485.518l-.279.408a.8.8 0 0 1 .303-.046q.16-.013.178.028a1 1 0 0 0 .045.342.8.8 0 0 0 .169.228.46.46 0 0 0 .256.092M639.555 346.825c1.722 2.017 3.382 3.948 5.034 5.882.331.384.564.656.902 1.204.256.406.78 1.276.3 1.452-.411.102-.719.12-1.357-.493-1.64-1.591-3.039-3.411-4.437-5.209-1.234-1.59-2.151-2.819-3.163-4.289-.472-.686-.293-1.173.397-1.458.62-.255 1.25-.529 1.909-.66 2.37-.486 4.744-.909 7.125-1.356.295-.058.522-.12.884-.138.44-.017.759-.054.869.367.11.399-.393.667-.674.749-2.33.746-7.163 2.202-7.402 2.34 1.33.71 2.546 1.396 3.801 2.014 8.756 4.266 17.721 7.87 27.367 9.289 7.634 1.123 15.245 1.314 22.849.314.449-.056.91-.074 1.355-.082.601-.02.921.078.961.393-.005.6-.408.72-.72.843-.619.256-1.303.379-1.967.502-8.886 1.549-17.773.989-26.653-.758-9.115-1.793-17.512-5.567-25.639-10.072-.42-.254-1.514-.784-1.741-.834"/><path fill="#fff" d="M184 208h343v2H184zM184 250h283v2H184zM184 292h190v2H184z"/><path fill="#F67ACB" d="M207.927 361.384v-9.104h1.223v9.104zm.973-4.053v-1.098l3.904-.012v1.097zm0-3.954v-1.097h4.116v1.097zm9.266 8.007v-1.995h-.199v-2.308q0-.686-.362-1.035-.35-.35-1.035-.349-.387 0-.798.012l-.786.025q-.373.013-.648.038v-1.048q.275-.025.573-.037.312-.025.636-.025.325-.012.624-.013 1.023 0 1.671.25.649.237.96.785.312.549.312 1.485v4.215zm-2.182.175q-.748 0-1.297-.25a1.97 1.97 0 0 1-.836-.748q-.287-.486-.287-1.172 0-.711.312-1.185.324-.474.936-.711.611-.25 1.471-.25h1.809v.898h-1.859q-.723 0-1.11.35a1.16 1.16 0 0 0-.386.898q0 .548.386.885.387.337 1.11.337.424 0 .811-.15.387-.162.636-.524.262-.374.287-1.022l.324.474q-.062.71-.349 1.197a1.8 1.8 0 0 1-.773.723q-.488.25-1.185.25m4.529-.175v-1.335l3.63-4.352v.2l-.2-.3.162.075h-3.641v-.948h4.739v1.335l-3.629 4.352v-.174l.224.311-.175-.112h3.779v.948zm8.91.224q-.873 0-1.509-.299a2.9 2.9 0 0 1-1.035-.786 3.5 3.5 0 0 1-.599-1.11 4.3 4.3 0 0 1-.187-1.247v-.224q0-.649.187-1.26.2-.61.599-1.097a2.8 2.8 0 0 1 1.01-.786q.624-.3 1.459-.299 1.085 0 1.784.474.711.46 1.047 1.197.35.735.349 1.571v.537h-5.911v-.898h5.038l-.274.486q0-.71-.224-1.222a1.76 1.76 0 0 0-.674-.811q-.449-.287-1.135-.287-.711 0-1.185.325a2 2 0 0 0-.698.885q-.225.561-.224 1.297 0 .71.224 1.285.237.56.723.898.487.324 1.235.324.786 0 1.272-.349.499-.35.599-.811h1.122a2.64 2.64 0 0 1-.549 1.185 2.65 2.65 0 0 1-1.035.761 3.6 3.6 0 0 1-1.409.261m4.431-.224v-6.66h.948v2.744h-.05q0-1.46.636-2.133.65-.686 1.933-.686h.225v1.073h-.424q-.998 0-1.534.536-.537.524-.537 1.522v3.604zm7.205 2.494v-9.154h.948v2.881l-.225-.025q.063-1.072.449-1.746.399-.686 1.035-1.01a3 3 0 0 1 1.385-.324q.723 0 1.309.274.598.274 1.023.748t.648 1.098q.225.623.225 1.322v.224q0 .7-.237 1.322a3.4 3.4 0 0 1-.674 1.098 3.1 3.1 0 0 1-1.022.748 3 3 0 0 1-1.297.274q-.71 0-1.36-.311-.648-.312-1.072-1.011-.424-.697-.487-1.833l.549.998v4.427zm3.38-3.317q.673 0 1.172-.312.499-.324.773-.885a3 3 0 0 0 .275-1.31q0-.748-.275-1.309a2.07 2.07 0 0 0-.773-.873q-.499-.325-1.172-.325-.598 0-1.11.275a2.03 2.03 0 0 0-.823.773q-.3.498-.3 1.21v.573q0 .686.312 1.173.312.486.823.748a2.4 2.4 0 0 0 1.098.262m8.872.823v-1.995h-.199v-2.308q0-.686-.362-1.035-.35-.35-1.035-.349-.387 0-.798.012l-.786.025q-.374.013-.648.038v-1.048q.274-.025.573-.037.312-.025.636-.025.325-.012.624-.013 1.023 0 1.671.25.65.237.961.785.31.549.311 1.485v4.215zm-2.182.175q-.748 0-1.297-.25a1.97 1.97 0 0 1-.836-.748q-.286-.486-.286-1.172 0-.711.311-1.185.324-.474.936-.711.611-.25 1.471-.25h1.809v.898h-1.859q-.723 0-1.11.35a1.16 1.16 0 0 0-.386.898q0 .548.386.885.387.337 1.11.337.424 0 .811-.15.387-.162.636-.524.262-.374.287-1.022l.324.474q-.062.71-.349 1.197a1.8 1.8 0 0 1-.773.723q-.487.25-1.185.25m4.954-.175v-6.66h.947v2.744h-.05q0-1.46.637-2.133.648-.686 1.933-.686h.224v1.073h-.424q-.997 0-1.534.536-.536.524-.536 1.522v3.604zm7.456.075q-.747 0-1.297-.212a1.65 1.65 0 0 1-.835-.724q-.287-.524-.287-1.409v-6.41h1.147v6.56q0 .536.287.835.3.288.836.287h1.172v1.073zm-3.566-5.837v-.898h4.589v.898zm8.691 5.986q-.873 0-1.509-.299a2.9 2.9 0 0 1-1.035-.786 3.5 3.5 0 0 1-.599-1.11 4.2 4.2 0 0 1-.187-1.247v-.224q0-.649.187-1.26.199-.61.599-1.097a2.8 2.8 0 0 1 1.01-.786q.623-.3 1.459-.299 1.085 0 1.783.474.71.46 1.048 1.197.35.735.349 1.571v.537h-5.911v-.898h5.038l-.274.486q0-.71-.225-1.222a1.75 1.75 0 0 0-.673-.811q-.45-.287-1.135-.287-.711 0-1.185.325-.462.324-.698.885-.225.561-.225 1.297 0 .71.225 1.285.237.56.723.898.486.324 1.235.324.785 0 1.272-.349.498-.35.598-.811h1.123a2.66 2.66 0 0 1-.549 1.185 2.65 2.65 0 0 1-1.035.761 3.6 3.6 0 0 1-1.409.261m9.676 0q-.711 0-1.31-.261a3.2 3.2 0 0 1-1.048-.736 3.5 3.5 0 0 1-.685-1.098 3.8 3.8 0 0 1-.237-1.347v-.224q0-.711.237-1.335.237-.623.661-1.097a3.134 3.134 0 0 1 2.344-1.01q.761 0 1.384.324.624.312 1.023.985.4.673.449 1.746l-.499-.798v-4.477h1.198v9.104h-.948v-2.956h.349q-.05 1.135-.474 1.846-.424.698-1.073 1.023a3.1 3.1 0 0 1-1.371.311m.162-1.047q.61 0 1.11-.275.498-.273.798-.785.299-.524.299-1.222v-.574q0-.686-.312-1.16a1.9 1.9 0 0 0-.81-.736 2.34 2.34 0 0 0-1.098-.262q-.66 0-1.172.312a2.16 2.16 0 0 0-.786.873q-.274.561-.274 1.322 0 .76.287 1.335.286.561.798.873.511.299 1.16.299m9.309.823v-1.995h-.2v-2.308q0-.686-.361-1.035-.35-.35-1.035-.349-.387 0-.798.012l-.786.025q-.375.013-.649.038v-1.048q.274-.025.574-.037.312-.025.636-.025.324-.012.624-.013 1.022 0 1.671.25.648.237.96.785.312.549.312 1.485v4.215zm-2.182.175q-.749 0-1.297-.25a1.97 1.97 0 0 1-.836-.748q-.287-.486-.287-1.172 0-.711.312-1.185.324-.474.935-.711.612-.25 1.472-.25h1.808v.898h-1.858q-.723 0-1.11.35a1.15 1.15 0 0 0-.387.898q0 .548.387.885t1.11.337q.424 0 .811-.15.386-.162.636-.524.261-.374.286-1.022l.325.474q-.063.71-.349 1.197a1.8 1.8 0 0 1-.774.723q-.486.25-1.184.25m7.492-.175v-9.104h1.197v9.104zm-.923-8.156v-.948h2.12v.948zm4.366 8.156v-6.66h1.198v6.66zm-1.022-5.712v-.948h2.22v.948zm1.359-2.02q-.4 0-.599-.212a.8.8 0 0 1-.187-.537q0-.324.187-.536.2-.212.599-.212t.586.212q.2.212.2.536a.75.75 0 0 1-.2.537q-.187.212-.586.212m4.984 7.931q-1.31 0-2.033-.561-.71-.56-.736-1.534h1.123q.024.387.386.736.375.337 1.26.337.798 0 1.222-.312.424-.324.424-.786a.74.74 0 0 0-.312-.636q-.312-.237-1.01-.311l-.723-.075q-.948-.1-1.547-.562-.598-.473-.598-1.322 0-.635.324-1.085.324-.46.898-.698.573-.249 1.322-.249 1.122 0 1.821.499.697.498.723 1.484h-1.122q-.013-.4-.375-.674-.349-.287-1.047-.287-.699 0-1.06.287a.89.89 0 0 0-.362.723q0 .375.25.599.261.224.848.287l.723.075q1.073.112 1.721.598.649.474.649 1.347 0 .624-.362 1.11-.35.474-.973.749-.624.261-1.434.261m6.724-.124q-.749 0-1.297-.212a1.65 1.65 0 0 1-.836-.724q-.287-.524-.287-1.409v-6.41h1.148v6.56q0 .536.286.835.3.288.836.287h1.172v1.073zm-3.567-5.837v-.898h4.589v.898zm9.912 5.762v-1.995h-.199v-2.308q0-.686-.362-1.035-.35-.35-1.035-.349-.387 0-.798.012l-.786.025q-.373.013-.648.038v-1.048q.274-.025.573-.037.312-.025.636-.025.325-.012.624-.013 1.023 0 1.671.25.65.237.96.785.312.549.312 1.485v4.215zm-2.182.175q-.748 0-1.297-.25a1.97 1.97 0 0 1-.836-.748q-.287-.486-.287-1.172 0-.711.312-1.185.324-.474.936-.711.611-.25 1.471-.25h1.809v.898h-1.859q-.723 0-1.11.35a1.16 1.16 0 0 0-.386.898q0 .548.386.885.387.337 1.11.337.424 0 .811-.15.387-.162.636-.524.262-.374.287-1.022l.324.474q-.062.71-.349 1.197a1.8 1.8 0 0 1-.773.723q-.487.25-1.185.25m10.198.049q-.71 0-1.309-.261a3.2 3.2 0 0 1-1.048-.736 3.5 3.5 0 0 1-.686-1.098 3.8 3.8 0 0 1-.237-1.347v-.224q0-.711.237-1.335.238-.623.661-1.097a3.134 3.134 0 0 1 2.345-1.01q.76 0 1.384.324.624.312 1.023.985.4.673.449 1.746l-.499-.798v-4.477h1.197v9.104h-.948v-2.956h.35q-.051 1.135-.474 1.846-.425.698-1.073 1.023a3.1 3.1 0 0 1-1.372.311m.162-1.047q.612 0 1.11-.275.5-.273.798-.785.3-.524.3-1.222v-.574q0-.686-.312-1.16-.3-.486-.811-.736a2.3 2.3 0 0 0-1.097-.262q-.662 0-1.172.312a2.16 2.16 0 0 0-.786.873q-.274.561-.274 1.322 0 .76.286 1.335.288.561.799.873.51.299 1.159.299m8.112 1.047q-.873 0-1.509-.299a2.9 2.9 0 0 1-1.035-.786 3.5 3.5 0 0 1-.598-1.11 4.2 4.2 0 0 1-.187-1.247v-.224q0-.649.187-1.26.2-.61.598-1.097a2.8 2.8 0 0 1 1.01-.786q.624-.3 1.46-.299 1.084 0 1.783.474.71.46 1.048 1.197.349.735.349 1.571v.537h-5.912v-.898h5.039l-.275.486q0-.71-.224-1.222a1.76 1.76 0 0 0-.673-.811q-.45-.287-1.135-.287-.711 0-1.185.325a2 2 0 0 0-.699.885 3.5 3.5 0 0 0-.224 1.297q0 .71.224 1.285.238.56.724.898.486.324 1.234.324.786 0 1.273-.349.498-.35.598-.811h1.123a2.66 2.66 0 0 1-.549 1.185q-.412.498-1.035.761a3.6 3.6 0 0 1-1.41.261m9.726 0q-.873 0-1.509-.299a2.9 2.9 0 0 1-1.035-.786 3.5 3.5 0 0 1-.599-1.11 4.3 4.3 0 0 1-.187-1.247v-.224q0-.649.187-1.26.2-.61.599-1.097a2.8 2.8 0 0 1 1.01-.786q.624-.3 1.459-.299 1.086 0 1.784.474.711.46 1.047 1.197.35.735.35 1.571v.537h-5.912v-.898h5.039l-.275.486q0-.71-.224-1.222a1.75 1.75 0 0 0-.674-.811q-.448-.287-1.135-.287-.71 0-1.184.325a2 2 0 0 0-.699.885 3.5 3.5 0 0 0-.224 1.297q0 .71.224 1.285.237.56.724.898.486.324 1.234.324.786 0 1.272-.349.499-.35.599-.811h1.122a2.64 2.64 0 0 1-.548 1.185q-.412.498-1.036.761a3.6 3.6 0 0 1-1.409.261m6.614-.025q-1.31 0-2.033-.561-.71-.56-.736-1.534h1.123q.024.387.386.736.375.337 1.26.337.798 0 1.222-.312.424-.324.424-.786a.74.74 0 0 0-.312-.636q-.312-.237-1.01-.311l-.723-.075q-.948-.1-1.547-.562-.598-.473-.598-1.322 0-.635.324-1.085.324-.46.898-.698.573-.249 1.322-.249 1.122 0 1.821.499.698.498.723 1.484h-1.122q-.013-.4-.375-.674-.349-.287-1.047-.287-.699 0-1.06.287a.89.89 0 0 0-.362.723q0 .375.25.599.261.224.848.287l.723.075q1.073.112 1.721.598.649.474.649 1.347 0 .624-.362 1.11-.35.474-.973.749-.624.261-1.434.261m4.13 2.295v-9.154h.947v2.881l-.224-.025q.062-1.072.449-1.746.399-.686 1.035-1.01a3 3 0 0 1 1.384-.324q.724 0 1.31.274.598.274 1.023.748.423.474.648 1.098.225.623.225 1.322v.224q0 .7-.237 1.322a3.4 3.4 0 0 1-.674 1.098 3.1 3.1 0 0 1-1.023.748q-.585.274-1.297.274-.711 0-1.359-.311-.648-.312-1.073-1.011-.423-.697-.486-1.833l.549.998v4.427zm3.379-3.317q.673 0 1.173-.312a2.17 2.17 0 0 0 .773-.885 3 3 0 0 0 .274-1.31q0-.748-.274-1.309a2.07 2.07 0 0 0-.773-.873q-.5-.325-1.173-.325-.599 0-1.11.275a2.04 2.04 0 0 0-.823.773q-.299.498-.299 1.21v.573q0 .686.312 1.173.312.486.823.748.512.262 1.097.262m7.676 1.047q-.873 0-1.509-.299a2.9 2.9 0 0 1-1.035-.786 3.5 3.5 0 0 1-.599-1.11 4.2 4.2 0 0 1-.187-1.247v-.224q0-.649.187-1.26.2-.61.599-1.097a2.8 2.8 0 0 1 1.01-.786q.624-.3 1.459-.299 1.085 0 1.783.474.712.46 1.048 1.197.35.735.349 1.571v.537h-5.911v-.898h5.038l-.274.486q0-.71-.225-1.222a1.75 1.75 0 0 0-.673-.811q-.449-.287-1.135-.287-.711 0-1.185.325a2 2 0 0 0-.698.885q-.225.561-.225 1.297 0 .71.225 1.285.237.56.723.898.486.324 1.235.324.786 0 1.272-.349.499-.35.599-.811h1.122a2.64 2.64 0 0 1-.549 1.185 2.65 2.65 0 0 1-1.035.761 3.6 3.6 0 0 1-1.409.261m4.431-.224v-6.66h.948v2.744h-.05q0-1.46.636-2.133.649-.686 1.933-.686h.225v1.073h-.424q-.999 0-1.534.536-.537.524-.537 1.522v3.604zm8.745 0v-1.995h-.199v-2.308q0-.686-.362-1.035-.35-.35-1.035-.349-.387 0-.798.012l-.786.025q-.375.013-.649.038v-1.048q.274-.025.574-.037.312-.025.636-.025.324-.012.624-.013 1.022 0 1.671.25.648.237.96.785.312.549.312 1.485v4.215zm-2.182.175q-.749 0-1.297-.25a1.97 1.97 0 0 1-.836-.748q-.287-.486-.287-1.172 0-.711.312-1.185.324-.474.935-.711.612-.25 1.472-.25h1.808v.898h-1.858q-.723 0-1.11.35a1.15 1.15 0 0 0-.387.898q0 .548.387.885t1.11.337q.424 0 .811-.15.385-.162.636-.524.261-.374.287-1.022l.324.474q-.063.71-.349 1.197a1.8 1.8 0 0 1-.774.723q-.486.25-1.184.25"/><path stroke="#F67ACB" stroke-width="1.039" d="M184.52 334.52h216.171v45.729H184.52z"/><path stroke="#F67ACB" stroke-linecap="round" stroke-linejoin="round" stroke-width="1.5" d="m194.998 420.768-6.874 6.874-4.124-4.124"/><path fill="#fff" d="M210.998 423.205h70v2h-70z"/><path stroke="#F67ACB" stroke-linecap="round" stroke-linejoin="round" stroke-width="1.5" d="m194.998 459.642-6.874 6.874-4.124-4.124"/><path fill="#fff" d="M210.998 462.079h70v2h-70z"/><path stroke="#F67ACB" stroke-linecap="round" stroke-linejoin="round" stroke-width="1.5" d="m194.998 498.516-6.874 6.874-4.124-4.124"/><path fill="#fff" d="M210.998 500.953h70v2h-70z"/><path fill="#F67ACB" d="M422.34 363.485a21 21 0 0 1-.639-.207 2.1 2.1 0 0 1-.613-.37q-.28-.238-.52-.7a6.3 6.3 0 0 1-.374-1.112 10 10 0 0 1-.148-1.293 10 10 0 0 1-.01-1.805 9.3 9.3 0 0 1 .347-1.614 2 2 0 0 0 .112-.351q.094-.31.206-.659.13-.352.195-.538.132-.352.404-.937.291-.606.624-1.176.507-.906.844-1.435.338-.531.648-.897.31-.368.704-.701.412-.355 1.051-.871.412-.355.929-.418.536-.065 1.016.156.478.2.738.661.253.4.304.998.048.577-.077 1.251a5.7 5.7 0 0 1-.397 1.257q-.27.605-.657 1.018-.24.26-.464.22-.204-.043-.504-.279a5 5 0 0 1-.233-.382q-.005-.06.073-.087.108-.15.279-.505t.339-.751q.166-.415.226-.661.089-.85.121-1.194.03-.363-.165-.528-.086-.073-.244-.04-.138.032-.462.239-.441.238-1.121.997a10.7 10.7 0 0 0-1.229 1.628q-.708 1.122-1.179 1.985a7 7 0 0 0-.677 1.742 10 10 0 0 0-.115.311l-.061.225q.027.079-.027.404a3.3 3.3 0 0 1-.136.533 10 10 0 0 0-.099 1.935q.041.98.244 1.726.222.744.546 1.018.274.158.708.061a4.7 4.7 0 0 0 1.013-.365 28 28 0 0 0 1.136-.576q.462-.24.84-.512.38-.273.563-.469.15-.132.379-.272.247-.16.427-.176.27-.123.312-.106.042.016.055.176.023.28-.267.644-.272.364-.726.683-.147.173-.39.374a2.3 2.3 0 0 1-.515.323q-.393.354-.985.705a6.6 6.6 0 0 1-1.218.563q-.605.211-1.131.154m10.454-1.453q-.073.086-.174.074-.1.01-.328-.073-.387-.067-.503-.259-.094-.172.068-.628.068-.146.15-.614.099-.49.207-1.121l.216-1.263.189-1.099.107-.651q-.013-.159.026-.645.06-.486.09-1.091.185-.437.222-.942.058-.505.08-.729.053-.326.123-.692.09-.37.139-.734.053-.327.105-.671.07-.348.063-.447l-.027-.319-.737.061q-.297.045-.877.073a29 29 0 0 0-1.038.067q-.94.038-1.271-.075-.313-.134-.388-.569-.06-.237.071-.347.13-.112.648-.175.516-.063 1.596-.113a13 13 0 0 1 1.455-.121q.62-.031.699-.039a.35.35 0 0 0 .086-.167 1 1 0 0 1 .047-.165 1.4 1.4 0 0 1 .001-.221q.029-.143.183-.216.135-.312.339-.269.222.022.468.323.095.172.171.367.097.192.25.34.072-.086.41-.135l.714-.099q.458-.039.816-.088.355-.07.494-.082a.96.96 0 0 1 .451-.138q.298-.024.601-.01.458-.038.641-.013.202.024.271.118l.013.159a.36.36 0 0 0 .113.152q.086.073.09.112a1 1 0 0 1-.065.187.7.7 0 0 1-.268.162q-.195.057-.435.077a5 5 0 0 0-.475.079q-.337.049-.576.069-.452.117-1.025.226-.555.086-1.249.184a4 4 0 0 0-.555.086q-.257.042-.249.142-.08.007-.184.436-.085.429-.166.897a8 8 0 0 1-.184.919q-.089.389-.158.515a.21.21 0 0 1 .076.194q.01.12-.084.429a2.7 2.7 0 0 1-.123.451.9.9 0 0 0-.033.324l-.073.327a9 9 0 0 0-.097.771 4.5 4.5 0 0 1-.058.748q-.035.303-.108.39l-.068.146a.5.5 0 0 0-.056.286q.015.179-.03.604-.026.404-.077.769-.05.366-.106.411.202.023-.015.543.017.198-.026.403a1.2 1.2 0 0 0-.037.284q-.087.389-.209.861l-.213.82q-.089.368-.144.434m3.96-.21q-.375-.17-.435-.405-.04-.239.209-.861.249-.623.783-1.932.403-.936.601-1.455.216-.54.277-.765.081-.228.076-.288-.054-.176.017-.282a.6.6 0 0 1 .242-.221q.092-.108.289-.385a3.2 3.2 0 0 0 .387-.655q.145-.433.347-.892.204-.457.547-1.149.342-.71.89-1.84.34-.731.759-1.489.417-.777.895-1.539a3.4 3.4 0 0 1 .362-.472q.165-.195.346-.189.239-.02.551.114.332.133.613.371.28.237.425.526.113.152.136.671.024.52.025 1.262.002.743-.008 1.587.009.822-.018 1.948t-.045 2.352q.002 1.224.037 2.365.033 1.12.163 1.953.035.177.028.339-.007.16.002.261-.11.129-.391.132a1.2 1.2 0 0 1-.528-.076q-.249-.099-.304-.276a.3.3 0 0 1-.093-.152q-.01-.12-.02-.48t-.055-1.14l-.169-3.237-.258.042q-.179.015-.674.096t-1.066.209q-.573.108-1.065.23a4 4 0 0 0-.648.174q-.179.015-.418.276a3 3 0 0 0-.407.656q-.057.285-.249.623-.175.315-.166.415a1 1 0 0 0-.219.259l-.068.146q.009.12-.15.615-.141.473-.372 1.074a9 9 0 0 1-.476 1.024l-.366.672zm3.591-6.762.196-.057q.216-.058.491-.121a3 3 0 0 1 .534-.104q.82-.27 1.194-.361.372-.111.511-.123a.6.6 0 0 1 .284.037q.089.093.15.108l.081.013q.016-.042.022-.464l.013-1.044q.028-.625.033-1.287.024-.685.017-1.246l-.014-.882a41 41 0 0 1-.016-.681l-.007-.321q-.12.01-.482.482-.342.47-.76 1.228a15 15 0 0 0-.769 1.609q-.168.396-.322.709-.154.315-.255.322a4 4 0 0 0-.209.379q-.154.314-.34.731a7 7 0 0 0-.301.727q-.114.312-.051.346"/></g><path fill="#fff" d="M79 95.179C79 77.407 93.407 63 111.179 63H1153.82c17.77 0 32.18 14.407 32.18 32.179h-2C1184 78.51 1170.49 65 1153.82 65H111.179C94.511 65 81 78.511 81 95.179zM1185 593H80zM79 593V95.179C79 77.407 93.407 63 111.179 63v2C94.511 65 81 78.511 81 95.179V593zM1153.82 63c17.77 0 32.18 14.407 32.18 32.179V593h-2V95.179C1184 78.51 1170.49 65 1153.82 65z" mask="url(#e)"/><g clip-path="url(#f)"><mask id="q" fill="#fff"><path d="M921 40c0-22.091 17.909-40 40-40h295c22.09 0 40 17.909 40 40v570c0 22.091-17.91 40-40 40H961c-22.091 0-40-17.909-40-40z"/></mask><path fill="url(#g)" d="M921 40c0-22.091 17.909-40 40-40h295c22.09 0 40 17.909 40 40v570c0 22.091-17.91 40-40 40H961c-22.091 0-40-17.909-40-40z"/><path fill="url(#h)" d="M0 0h375v88H0z" transform="translate(921)"/><path stroke="#fff" stroke-linecap="round" stroke-linejoin="round" stroke-width="1.998" d="M1251 44h18M1251 38h18M1251 50h18"/><path fill="url(#i)" d="M0 0h375v261H0z" transform="translate(921 505)"/><rect width="326" height="244" x="945.5" y="513.5" stroke="#fff" rx="11.5"/><circle cx="981" cy="124" r="35.66" stroke="#343434" stroke-width=".679"/><g clip-path="url(#j)"><path fill="#F67ACB" d="m984.139 115.302-5.42 7.29 4.118 5.527-2.311 1.763-6.536-8.732-8.688 11.643h31.882z"/></g><circle cx="1066" cy="124" r="35.66" stroke="#343434" stroke-width=".679"/><g clip-path="url(#k)"><path fill="#F67ACB" d="m1069.14 115.302-5.42 7.29 4.12 5.527-2.31 1.763-6.54-8.732-8.69 11.643h31.88z"/></g><circle cx="1151" cy="124" r="35.66" stroke="#343434" stroke-width=".679"/><g clip-path="url(#l)"><path fill="#F67ACB" d="m1154.14 115.302-5.42 7.29 4.12 5.527-2.31 1.763-6.54-8.732-8.69 11.643h31.88z"/></g><circle cx="1236" cy="124" r="35.66" stroke="#343434" stroke-width=".679"/><g clip-path="url(#m)"><path fill="#F67ACB" d="m1239.14 115.302-5.42 7.29 4.12 5.527-2.31 1.763-6.54-8.732-8.69 11.643h31.88z"/></g><path fill="url(#n)" d="M0 0h375v261H0z" transform="translate(921 176)"/><rect width="327" height="1" x="945" y="376" fill="#000" rx=".5"/><path stroke="#fff" stroke-linecap="round" stroke-linejoin="round" stroke-width="1.5" d="M978.367 396.842a4.57 4.57 0 0 0-3.242-1.343 4.58 4.58 0 0 0-3.242 1.343l-.883.883-.883-.883a4.585 4.585 0 0 0-6.484 6.483l.884.883 6.483 6.484 6.483-6.484.884-.883a4.59 4.59 0 0 0 .994-4.996 4.6 4.6 0 0 0-.994-1.487M1014.5 405.5c0 .442-.18.866-.49 1.179-.31.312-.73.488-1.18.488h-10l-3.33 3.333v-13.333a1.662 1.662 0 0 1 1.67-1.667h11.66c.45 0 .87.176 1.18.488.31.313.49.737.49 1.179zM1251.83 410.5l-5.83-4.167-5.83 4.167v-13.333c0-.442.17-.866.48-1.179.32-.312.74-.488 1.18-.488h8.34c.44 0 .86.176 1.18.488.31.313.48.737.48 1.179z"/><rect width="326" height="244" x="945.5" y="184.5" stroke="#fff" rx="11.5"/><path fill="url(#o)" d="M0 0h375v68H0z" transform="translate(921 437)"/><path fill="#fff" d="M945 461h208v2H945zM945 479h122v2H945zM981.927 53.27c-3.664 0-6.131-2.343-6.131-5.259h3.016c.025 1.346 1.296 2.567 3.19 2.567 1.745 0 2.867-1.071 2.867-2.417 0-1.197-1.022-1.895-2.468-2.293l-2.144-.599c-3.689-.947-4.337-3.165-4.337-4.66 0-3.042 2.667-5.11 5.833-5.11 3.141 0 5.608 1.944 5.608 5.16h-3.016c0-1.422-1.072-2.444-2.667-2.444-1.47 0-2.692.997-2.692 2.343 0 .474.15 1.471 2.119 1.995l2.044.598c2.692.747 4.761 2.143 4.761 4.885 0 3.14-2.618 5.234-5.983 5.234M993.676 41.331h2.468v2.293h-2.468v9.347h-2.891v-9.347h-2.094v-2.293h2.094v-4.287h2.891zM1003.84 41.032c.7 0 1.44.15 1.89.399l-.57 2.742a3.64 3.64 0 0 0-1.7-.424c-1.89 0-2.94 1.894-2.94 5.16v4.062h-2.913v-11.64h2.893v2.493c.62-1.944 1.89-2.792 3.34-2.792M1015.04 47.563V41.33h2.89v11.64h-2.89v-1.82c-.6 1.471-2.44 2.12-3.62 2.12-2.99 0-4.66-2.02-4.66-5.41v-6.53h2.89v6.406c0 1.87 1.13 2.841 2.42 2.841 1.32 0 2.97-.747 2.97-3.016M1026.21 53.27c-3.37 0-6.33-2.442-6.33-6.131s2.96-6.107 6.33-6.107c2.02 0 3.66.897 4.73 2.243l-2.04 1.62c-.6-.722-1.6-1.171-2.64-1.171-2.02 0-3.47 1.446-3.47 3.415 0 1.944 1.45 3.44 3.47 3.44 1.04 0 2.04-.45 2.64-1.172l2.04 1.62c-1.07 1.346-2.71 2.243-4.73 2.243M1036.62 41.331h2.47v2.293h-2.47v9.347h-2.89v-9.347h-2.1v-2.293h2.1v-4.287h2.89zM1047.05 41.032c3.27 0 5.91 2.567 5.91 6.107s-2.64 6.131-5.91 6.131c-1.94 0-3.78-.997-4.63-2.592v2.293h-1.6V35h1.6v8.6c.87-1.596 2.66-2.568 4.63-2.568m-.12 10.718c2.47 0 4.46-2.044 4.46-4.636 0-2.567-1.99-4.561-4.46-4.561-2.32 0-4.51 1.82-4.51 4.636 0 2.692 2.09 4.561 4.51 4.561M1060.69 53.27c-3.31 0-6.08-2.442-6.08-6.131s2.77-6.107 6.08-6.107c3.32 0 6.11 2.418 6.11 6.107s-2.79 6.131-6.11 6.131m0-1.52c2.45 0 4.52-1.87 4.52-4.611 0-2.742-2.07-4.587-4.52-4.587-2.46 0-4.48 1.845-4.48 4.587s2.02 4.611 4.48 4.611M1074.5 53.27c-3.31 0-6.08-2.442-6.08-6.131s2.77-6.107 6.08-6.107c3.32 0 6.11 2.418 6.11 6.107s-2.79 6.131-6.11 6.131m0-1.52c2.45 0 4.51-1.87 4.51-4.611 0-2.742-2.06-4.587-4.51-4.587-2.46 0-4.48 1.845-4.48 4.587s2.02 4.611 4.48 4.611M1086.32 53.27c-2.02 0-4.04-1.171-4.24-3.39h1.47c.17.973 1.07 1.97 2.77 1.97 1.67 0 2.69-.873 2.69-2.044 0-.947-.65-1.57-1.85-1.87l-1.67-.398c-1.64-.4-2.96-1.247-2.96-3.19 0-1.895 1.62-3.316 3.84-3.316 1.94 0 3.74 1.072 3.81 3.166h-1.54c-.08-1.047-1.1-1.745-2.25-1.745-1.34 0-2.27.822-2.27 1.92 0 1.096.95 1.57 1.8 1.769l1.72.423c2.27.549 2.96 1.92 2.96 3.266 0 2.069-1.87 3.44-4.28 3.44M1095.33 41.331h2.67v1.371h-2.67v10.27h-1.57v-10.27h-2.12v-1.37h2.12v-4.363h1.57z"/><path fill="#F67ACB" d="M965.222 36.219h-10.689c-.436 0-.529.031-.779.282l-8.474 7.917c-.249.251-.28.346-.28.785v4.65q0 3.958 3.926 3.958h10.688c.436 0 .529-.031.778-.282l8.475-7.917c.249-.252.28-.346.28-.786v-4.649q0-3.958-3.925-3.958"/><g clip-path="url(#p)"><path fill="#F67ACB" d="m1116.03 268.374-13.43 18.055 10.2 13.689-5.72 4.365-16.19-21.626-21.52 28.835h78.96z"/></g></g><path fill="#fff" d="M920 40c0-22.644 18.356-41 41-41h295c22.64 0 41 18.356 41 41h-2c0-21.54-17.46-39-39-39H961c-21.539 0-39 17.46-39 39zm376 610H921zm-335 0c-22.644 0-41-18.356-41-41V40c0-22.644 18.356-41 41-41v2c-21.539 0-39 17.46-39 39v570c0 22.091 17.461 40 39 40M1256-1c22.64 0 41 18.356 41 41v569c0 22.644-18.36 41-41 41 21.54 0 39-17.909 39-40V40c0-21.54-17.46-39-39-39z" mask="url(#q)"/></g><path fill="#F67ACB" d="M1329.9 258.825c-1.72 2.017-3.38 3.948-5.03 5.882a8.3 8.3 0 0 0-.9 1.204c-.26.406-.78 1.276-.3 1.452.41.102.72.12 1.36-.493 1.64-1.591 3.04-3.411 4.43-5.209a90 90 0 0 0 3.17-4.289c.47-.686.29-1.173-.4-1.458-.62-.255-1.25-.529-1.91-.66-2.37-.486-4.74-.909-7.12-1.356-.3-.058-.53-.12-.89-.138-.44-.017-.76-.054-.87.367-.11.399.39.667.68.749 2.33.746 7.16 2.202 7.4 2.34-1.33.71-2.55 1.396-3.8 2.014-8.76 4.266-17.72 7.87-27.37 9.289-7.63 1.123-15.25 1.314-22.85.314-.45-.056-.91-.074-1.35-.082-.61-.02-.92.078-.96.393 0 .6.4.72.72.843.61.256 1.3.379 1.96.502 8.89 1.549 17.78.989 26.66-.758 9.11-1.793 17.51-5.567 25.63-10.072.42-.254 1.52-.784 1.74-.834M1292.53 232.997q-.24-.01-.39-.278a.67.67 0 0 1-.14-.347c-.01-.134.05-.378.17-.733.13-.368.33-.926.62-1.673.16-.5.28-.861.37-1.084q.135-.354.15-.514c0-.146.02-.266.05-.358a.9.9 0 0 0 .08-.296c.08.003.16-.066.25-.209.08-.143.16-.34.23-.59.06-.224.11-.402.16-.533a1 1 0 0 0 .09-.296c.08-.104.15-.267.23-.49q.135-.334.39-.803.195-.591.42-1.222c.16-.433.31-.833.46-1.2.16-.379.3-.673.4-.882.16-.406.29-.687.38-.843.09-.17.09-.283.01-.34-.09-.071-.1-.185-.04-.343.06-.157.22-.33.46-.519.16-.166.29-.28.4-.342a.67.67 0 0 1 .41-.101c.17.008.42.033.73.074.24.025.5.043.76.056l.52.024c.12.059.26.125.43.2q.255.092.45.181c.15.06.22.11.22.15-.01.08.02.135.07.164.07.016.13.032.2.049.09.004.21.083.37.237.15.141.31.322.47.543.17.208.29.427.37.658q.15.347.21.65c.06.203.05.489-.04.859q-.03.299-.12.595c-.05.198-.11.329-.16.393a.9.9 0 0 0-.23.19c-.07.076-.11.148-.11.215 0 .053-.06.157-.16.313-.1.142-.22.31-.38.503q-.24.29-.51.577c-.18.192-.35.357-.52.496-.18.205-.4.395-.65.571a6 6 0 0 1-.64.43c-.35.144-.75.286-1.18.426-.42.141-.83.255-1.22.344-.38.089-.69.121-.94.096-.39.036-.65.077-.77.125-.11.035-.19.144-.26.328-.07.17-.14.347-.22.531-.06.17-.09.289-.1.355-.03.053-.1.216-.22.491q-.165.393-.36.924c-.13.354-.25.703-.37 1.044s-.22.624-.28.848c-.06.184-.13.287-.22.31a.65.65 0 0 1-.3.046m2.77-6.078c.05.056.25.072.62.049q.54-.036 1.17-.246.405-.121.81-.303c.29-.12.56-.254.82-.402.14-.087.35-.245.62-.472q.42-.34.84-.822c.05-.065.12-.188.22-.37.12-.195.22-.377.31-.547q.195-.271.39-.802c.14-.367.18-.673.13-.915q-.075-.524-.48-.983c-.26-.32-.59-.542-.97-.666a4 4 0 0 0-.73-.114q-.285-.014-.63.031c-.21.057-.38.142-.49.257-.1.116-.24.363-.41.742-.1.182-.25.462-.44.84-.19.365-.36.711-.49 1.039a19 19 0 0 1-.82 2.144c-.25.549-.41.895-.47 1.039a.9.9 0 0 1-.03.319q-.045.078.03.182m6.76 4.858a1 1 0 0 1-.25-.291c-.04-.095-.03-.275.02-.54q.09-.557.21-.971c.08-.29.18-.619.29-.988.03-.159.12-.428.25-.809q.225-.57.54-1.236c.21-.445.42-.862.62-1.253.21-.404.38-.703.52-.897a.54.54 0 0 1 .39-.082q.24.031.39.198.21.19.03.642c-.11.289-.33.746-.67 1.371-.17.352-.31.62-.39.803q-.135.253-.12.315.015.04.18-.052c.09-.143.24-.303.47-.479.22-.19.45-.373.7-.548s.49-.331.71-.468q.33-.205.45-.259.165-.093.36-.143c.15-.047.26-.082.31-.106.31-.133.63-.171.95-.117.31.055.51.184.58.388.01.107.04.189.11.245.08.057.11.086.11.086.06.002.08.023.08.063.01.041.02.061.02.061-.01.093-.08.15-.23.17-.13.007-.31.012-.52.016a1.6 1.6 0 0 0-.47.078q-.195.07-.48.178-.78.404-1.5.791c-.47.259-.92.611-1.37 1.058q-.15.153-.3.366c-.1.143-.21.298-.32.466-.07.063-.15.207-.22.43q-.12.335-.21.651c-.05.198-.08.317-.08.357 0 0-.02.066-.07.197-.04.118-.12.235-.21.35q-.255.309-.42.301c-.11-.005-.26-.119-.46-.342m8.18.781q-.27-.012-.42-.12c-.09-.071-.2-.17-.35-.296-.24-.278-.4-.54-.5-.784-.09-.258-.12-.5-.07-.724a.55.55 0 0 0 .06-.298v-.16c-.06-.07-.08-.111-.05-.123a.4.4 0 0 0 .09-.116q.12.006.09-.216c-.03-.108.04-.338.19-.692q.225-.53.54-.995.135-.195.39-.503a7.3 7.3 0 0 1 1.11-1.15c.35-.264.65-.457.91-.578.26-.122.54-.209.83-.262.3-.053.5-.077.61-.072.12.006.27.12.46.342.3.147.52.317.64.51q.21.29.24.832c.02.402-.03.86-.16 1.374-.12.502-.46 1.12-1.03 1.854-.35.464-.68.81-.97 1.037-.29.213-.63.424-1.03.633q-.435.26-.78.384c-.23.069-.5.11-.8.123m2.01-2.029q.51-.517.81-.984c.21-.31.42-.708.61-1.193.06-.144.11-.322.13-.534.02-.226.03-.433.01-.621-.01-.2-.05-.315-.13-.346q-.225-.15-.57-.107c-.23.017-.48.132-.76.346q-.645.49-1.14 1.248c-.33.492-.65 1.058-.98 1.697-.22.47-.28.854-.19 1.152q.165.428.72.334c.39-.075.89-.406 1.49-.992m8.76 2.629a3 3 0 0 1-.24-.031.44.44 0 0 1-.23-.191c-.19-.249-.31-.455-.35-.617-.05-.163-.04-.396.01-.7q.06-.299.06-.518c.03-.159.04-.292.06-.398q-.075-.083-.3.106c-.14.114-.33.258-.58.434-.48.498-.9.879-1.28 1.142q-.54.375-.96.496a2.1 2.1 0 0 1-.8.043.8.8 0 0 1-.53-.305c-.13-.179-.2-.403-.23-.672-.01-.267 0-.553.04-.859.07-.437.19-.852.34-1.245.16-.393.42-.828.76-1.306.16-.26.36-.511.62-.753.26-.254.54-.475.85-.661q.465-.298.9-.419c.31-.105.63-.157.95-.156.32-.012.6.028.85.12.16.087.28.133.38.138q.15.007.24-.189c.08-.104.15-.26.23-.47.07-.224.16-.413.26-.569l.5-1.278c.17-.353.34-.725.53-1.116q.3-.588.69-1.43.375-.624.6-.713c.15-.073.31-.012.49.183.14.18.18.382.13.607-.05.211-.19.552-.41 1.022-.1.142-.18.278-.26.408q-.105.176-.3.567c-.2.404-.37.77-.54 1.096q-.24.47-.51 1.078c-.06.21-.14.453-.25.729q-.135.414-.24.749c-.04.212-.1.409-.16.593q-.075.258-.15.254-.18.172-.33.625c-.11.289-.2.591-.29.908-.06.317-.12.581-.17.793q-.06.237-.09.616-.045.38-.06.738c-.01.227-.01.387-.02.48-.01.293-.03.479-.04.558-.02.08-.08.117-.17.113m-4.2-1.456q.42.019.9-.319.495-.338.99-.755c.21-.177.44-.414.68-.709q.375-.443.72-.888c.24-.296.43-.554.58-.774.14-.234.21-.377.22-.43q0-.1-.18-.148a1.8 1.8 0 0 0-.41-.06 1 1 0 0 0-.36.003q-.45.08-.9.359-.435.28-.96.857c-.37.41-.68.836-.92 1.278s-.39.817-.46 1.121c-.06.303-.03.458.1.465m11.62 1.96c-.1.049-.22.023-.38-.077a2 2 0 0 1-.42-.44 2 2 0 0 1-.18-.529 7 7 0 0 1 0-.781c.03-.266.02-.44-.02-.521-.02-.082-.09-.072-.22.029-.12.088-.34.272-.64.551-.35.318-.68.562-1 .735-.3.173-.54.248-.73.226-.09-.004-.2-.056-.31-.155-.1-.111-.2-.242-.29-.393a5 5 0 0 1-.21-.491c-.07-.297-.07-.67.01-1.12q.135-.696.39-1.444c.17-.499.36-.971.56-1.415.22-.444.44-.801.65-1.071.23-.27.42-.401.58-.394q.165.008.27.173c.09.111.18.282.26.512.05.096.07.177.05.243 0 .066-.06.144-.17.232a4.4 4.4 0 0 0-.45.7c-.17.313-.33.652-.49 1.018-.15.367-.29.721-.41 1.063s-.21.624-.26.848q-.075.318 0 .321c.19.009.41-.054.67-.189.28-.148.54-.329.79-.544q.435-.4.78-.885c.24-.322.49-.665.73-1.027.19-.259.38-.543.58-.854.21-.311.35-.531.41-.662q.3-.506.45-.68c.1-.129.22-.21.35-.244l.18.009.1.004c.08.017.17.082.28.193.1.058.16.114.17.168.01.041.01.094.01.161a10 10 0 0 1-.29.587c-.12.248-.2.431-.26.549q-.42.841-.84 1.663a7.7 7.7 0 0 0-.6 1.654c-.03.185-.05.404-.05.658.02.241.05.416.1.525.03.082.08.177.12.286q.105.144.21.25c.12.086.13.173.05.263a.85.85 0 0 1-.29.226.8.8 0 0 1-.24.069m5.59-.221q-.255.108-.6.073c-.22-.024-.53-.112-.91-.263a.6.6 0 0 1-.17-.088 3 3 0 0 1-.25-.212c-.08-.097-.14-.2-.19-.309-.2-.316-.26-.773-.2-1.371q.105-.896.66-2.131c.11-.196.26-.442.46-.74.21-.297.42-.568.62-.812.21-.257.35-.404.44-.44l.22-.07q.225-.069.57-.234c.07-.023.14-.046.22-.069.1-.023.19-.038.29-.047a.7.7 0 0 1 .24.011c.26.025.53.138.8.338q.435.28.69.652.27.353.15.608 0 .04-.12.154c-.07.064-.16.133-.25.209a1 1 0 0 0-.21.19c-.07.077-.17.106-.29.087a.53.53 0 0 1-.29-.173.85.85 0 0 1-.12-.407c-.02-.107-.12-.212-.29-.313a9 9 0 0 0-.23-.151c-.1-.005-.26.088-.47.278-.2.178-.39.396-.59.654a3.5 3.5 0 0 0-.66.83c-.19.311-.34.611-.46.899-.11.276-.19.472-.23.59-.06.131-.08.317-.05.559q.045.362.12.446c.05.029.19.042.4.039.23-.003.5-.018.8-.043.31-.039.61-.085.91-.138s.54-.116.73-.187c.26-.148.48-.231.67-.249q.285-.027.42.02c.15.06.23.137.25.231.02.095-.01.2-.11.315-.1.103-.27.208-.5.318-.22.096-.42.207-.59.333-.17.112-.25.202-.26.268a.37.37 0 0 0-.18.052.18.18 0 0 1-.14.013c-.03-.001-.13.014-.32.045-.19.032-.39.069-.59.113q-.285.068-.39.122m6.14.666a1.2 1.2 0 0 1-.45-.241 4 4 0 0 1-.38-.458c-.1-.179-.16-.335-.2-.47.01-.027-.01-.061-.05-.103-.03-.041-.04-.062-.04-.062-.05-.042-.07-.217-.07-.524.01-.319.05-.671.11-1.056q.075-.576.18-.912c.07-.21.19-.492.34-.845.15-.367.28-.695.38-.984l.6-1.133-.79-.257a.47.47 0 0 1-.23-.171.44.44 0 0 1-.08-.204c.01-.106.08-.23.2-.371q.195-.231.27-.228.105.025.36.037.285.013.54.005c.18-.005.28-.014.32-.025.06-.024.11-.055.17-.092.05-.051.1-.123.13-.215.07-.143.14-.273.2-.391q.09-.197.24-.429.15-.253.24-.43c.07-.116.18-.278.32-.485q.105-.135.24-.33c.08-.129.19-.238.31-.325.13-.101.25-.142.37-.123q.195.009.48.283c.1.138.16.24.17.308q.015.1-.18.372c-.11.221-.25.442-.41.661-.14.221-.28.441-.41.662-.23.283-.27.448-.14.494s.5.037 1.12-.028q.585-.073.84.099.255.152.27.493.045.482-.12.575t-.93.057c-.32.039-.59.059-.82.062l-.5-.023c-.17.005-.29.007-.34.004a1 1 0 0 0-.24.029.45.45 0 0 0-.25.129 2 2 0 0 0-.15.233c-.06.051-.14.187-.26.408a10 10 0 0 1-.43.721c-.21.551-.4 1.103-.56 1.656q-.24.81-.39 1.583c-.07.331-.08.564-.02.701q.09.184.51.243c.15.021.38.031.7.033.34-.011.6-.039.79-.084.15-.06.3-.119.47-.178q.24-.11.45-.22c.12-.061.24-.122.37-.183l.18-.111c.07-.104.15-.134.23-.09.07.044.14.147.18.309q-.015.24-.12.495c-.08.17-.33.365-.77.585-.62.345-1.18.546-1.69.602q-.75.066-1.26-.058m10.29-.363a.7.7 0 0 1-.19-.05c-.07-.043-.1-.064-.1-.064a.6.6 0 0 0-.05-.203 1 1 0 0 1-.03-.201q-.135-.087-.15-.168c-.01-.067.01-.173.07-.317.09-.129.2-.337.35-.624.15-.3.3-.62.46-.96.17-.352.32-.699.47-1.039s.28-.628.38-.863q.165-.374.18-.452a.7.7 0 0 1 .07-.197q.075-.117.15-.194c.11-.088.23-.089.34-.004.12.072.21.197.29.374.08.164.12.346.11.546 0 .093-.08.329-.23.71q-.225.55-.6 1.313c-.24.51-.5 1.025-.8 1.545-.21.377-.35.618-.41.722-.06.09-.16.132-.31.126m3.29-7.436q-.24-.01-.51-.204a2.3 2.3 0 0 1-.44-.501 1.15 1.15 0 0 1-.15-.607.64.64 0 0 1 .14-.275c.08-.116.17-.232.25-.348.09-.116.13-.188.13-.214q.165.007.24.031.105.004.24.091c.13.34.29.621.5.844.21.224.32.409.31.555-.01.293-.05.478-.1.556-.06.064-.26.088-.61.072m.61 7.857c-.04-.056-.07-.124-.11-.206a1 1 0 0 1-.03-.201c0-.027-.01-.061-.02-.101 0-.04-.02-.061-.07-.064-.04-.042-.01-.194.1-.456.12-.274.26-.588.44-.94q.285-.528.57-1.015c.2-.338.37-.603.5-.798.06-.037.11-.088.12-.154.03-.079.04-.119.01-.12 0 0 .04-.058.11-.175.08-.129.15-.213.19-.251.11-.182.2-.365.26-.549.07-.197.09-.363.07-.497q-.075-.104-.18-.068c-.07.023-.1.035-.1.035-.05.011-.14.034-.24.069a.9.9 0 0 0-.27.107q-.48.299-.63.271c-.11-.031-.22-.21-.34-.536-.04-.149-.06-.256-.04-.322.01-.066.07-.137.17-.213a.8.8 0 0 1 .3-.165c.1-.036.17-.073.23-.11.15-.087.27-.148.37-.183q.165-.053.24-.069c.35-.09.65-.097.88-.019.24.078.41.259.52.544q.27.352.24.792c-.01.28-.12.602-.32.966l-.22.291c-.07.13-.08.196-.04.198q.075.003.18-.132c.04-.051.13-.127.25-.228.13-.101.21-.151.25-.149 0 0 .01-.006.04-.018.04-.012.06-.064.07-.157l.12-.115.09-.056q.075.004.3-.166c.17-.125.36-.27.58-.433.16-.1.29-.147.41-.141.31-.079.55.032.73.334s.27.686.24 1.152l-.47 1.06.76-.846c.09-.103.17-.192.26-.269.09-.075.18-.138.25-.188q.045-.138.12-.155c.06-.01.08-.016.08-.016l.04.002c.03-.012.05-.038.05-.078.07-.05.14-.093.22-.13a.4.4 0 0 0 .17-.152c.23-.083.44-.087.62-.011.19.062.34.235.46.521.08.165.13.307.14.427.01.121 0 .301-.01.541a5 5 0 0 1-.1.475 3 3 0 0 0-.05.338q-.03.18-.09.497a1 1 0 0 0-.11.335c-.01.12-.01.233-.02.34q-.015.26 0 .36c.02.054.07.083.16.087.19-.031.45-.112.77-.244.34-.144.6-.286.76-.425q.315-.266.54-.256c.16-.006.25.072.29.234.02.054-.03.172-.16.353-.12.182-.25.355-.41.522-.14.167-.24.249-.31.246-.04-.002-.09.036-.14.113a.7.7 0 0 1-.19.151c-.1.089-.2.172-.29.247a.4.4 0 0 1-.29.107.5.5 0 0 0-.2.051.7.7 0 0 1-.24.029c-.14.033-.34.004-.62-.089-.26-.092-.43-.287-.49-.584-.05-.149-.08-.384-.11-.705-.02-.335 0-.668.07-.998.06-.238.11-.456.13-.655s.05-.338.1-.416c0-.04 0-.133.01-.28.01-.159-.01-.24-.05-.242q-.075-.005-.39.282c-.2.178-.43.407-.71.688q-.405.422-.81.883-.39.462-.66.831c-.12.141-.24.316-.34.524s-.18.326-.22.351c-.09.102-.21.11-.34.024a1.3 1.3 0 0 1-.32-.395.8.8 0 0 1-.07-.204.8.8 0 0 1 .01-.26c.03-.118.09-.289.17-.513q.135-.333.36-.944c.17-.446.31-.846.44-1.201.13-.367.2-.551.2-.551 0-.053-.1-.004-.31.146q-.3.206-.72.527-.195.211-.63.631c-.29.281-.62.599-.97.957-.35.357-.68.735-1.01 1.134q-.615.792-.87.961c-.15.113-.29.073-.43-.12m11.81.568a.6.6 0 0 0-.19-.249c-.07-.07-.11-.132-.11-.186s0-.106-.01-.16a.26.26 0 0 0-.07-.184c-.07-.083-.05-.262.04-.538q.15-.434.45-1.041.315-.625.72-1.308c.11-.101.23-.236.34-.404.12-.168.2-.278.26-.329q0-.08.06-.137c.05-.051.09-.076.15-.073v-.12c.01-.067.07-.177.2-.331.14-.154.31-.32.5-.498.2-.191.4-.368.61-.532.21-.177.38-.303.52-.377.28-.173.58-.273.87-.299.31-.026.57.053.77.236.04.041.1.111.19.209s.19.209.31.334c.12.113.25.232.38.358l.71.694-.41.982c-.2.525-.26.989-.2 1.392.07.404.19.757.35 1.058.06.149.19.295.38.438.21.143.4.232.59.267.1.019.2.063.29.134s.13.18.13.326a.57.57 0 0 1-.1.316c-.06.078-.15.127-.29.147a1.74 1.74 0 0 1-1.22-.377c-.36-.284-.69-.739-.98-1.367-.05-.082-.11-.232-.2-.45a4 4 0 0 1-.12-.446c-.05.064-.16.186-.31.366q-.24.25-.36.364-1.485 1.372-2.55 1.824c-.69.288-1.26.275-1.7-.039m.77-1.086q0 .14.42.02c.3-.093.62-.265.97-.516.47-.365.94-.77 1.42-1.215s.88-.861 1.17-1.247l.48-.699c-.12-.312-.26-.526-.41-.64-.14-.126-.27-.192-.37-.197-.18-.008-.44.14-.81.443-.34.304-.72.714-1.13 1.229a14 14 0 0 0-1.18 1.707c-.15.26-.28.514-.4.762-.1.236-.16.353-.16.353m10.06 6.133q-.39.142-.84.061c-.3-.04-.58-.14-.87-.3a3.3 3.3 0 0 1-.73-.575 1.7 1.7 0 0 1-.28-.453 3.5 3.5 0 0 1-.2-.55c-.03-.175-.02-.275.04-.299.05-.037.12-.047.22-.029.09.017.17.041.25.072.09.044.14.093.14.146.07.07.21.177.4.319.2.156.34.249.45.281.28.106.48.156.61.149a.7.7 0 0 0 .37-.123c.22-.177.4-.396.53-.657.13-.26.28-.621.43-1.081l.07-.257c.13-.488.28-1.008.44-1.561.16-.554.29-.988.4-1.303q.12-.455.09-.617c-.01-.107-.07-.09-.19.052-.05.011-.13.034-.22.07-.08.036-.18.078-.29.126-.16.073-.32.145-.49.218-.16.059-.3.1-.4.121a2 2 0 0 0-.3.006l-.14-.006c-.11.062-.31.046-.58-.047-.26-.106-.5-.25-.7-.433-.12-.165-.2-.289-.25-.372a1 1 0 0 1-.08-.284 4 4 0 0 1 0-.48c0-.214.11-.516.34-.905q.375-.604.87-1.121.405-.362 1.02-.734a7.5 7.5 0 0 1 1.23-.604c.42-.154.76-.218 1.03-.192.13.019.26.045.38.078q.18.028.39.198c.18.102.31.208.38.318.08.11.18.322.29.634q.105.326.15.648c.03.202.05.396.04.582-.01.2-.05.378-.11.536a.9.9 0 0 1-.24.369.4.4 0 0 0-.1.016.2.2 0 0 0-.08.016.6.6 0 0 1-.2.03c-.04-.001-.09.043-.14.134a.8.8 0 0 0-.14.314c-.02.079-.04.158-.07.237a1.3 1.3 0 0 1-.16.393c-.01.039-.02.072-.02.099-.01.04-.01.073-.03.099a.4.4 0 0 1-.06.097 1 1 0 0 0-.13.254 1 1 0 0 0-.06.298l-.09.216a2.6 2.6 0 0 1-.14.354 1 1 0 0 0-.04.198l-.1.396c-.03.092-.07.177-.11.255-.03.065-.07.171-.1.316-.03.132-.08.35-.13.655-.32 1.133-.63 1.979-.92 2.54-.29.573-.57.934-.83 1.082m-1.04-7.316q.51.224 1.08.09c.37-.089.81-.309 1.31-.66.31-.212.58-.46.79-.744q.345-.444.51-.917c.07-.197.1-.336.07-.417-.02-.095-.1-.152-.25-.172-.22-.064-.51-.037-.86.08q-.525.156-1.08.47c-.08.09-.16.173-.26.249q-.135.114-.27.188c-.06.037-.1.055-.1.055a.4.4 0 0 1-.06.097.2.2 0 0 1-.11.095q-.21.171-.42.521a3 3 0 0 0-.33.666c-.07.21-.07.343-.02.399m7.78 3.865q-.885-.04-1.41-.726c-.35-.47-.51-1.038-.46-1.703.05-.479.16-.987.35-1.526q.3-.826.75-1.566c.31-.507.63-.946.98-1.316q.525-.556 1.08-.771a1.945 1.945 0 0 1 .91-.178c.15.007.3.04.46.101q.225.07.39.158c.22.104.39.225.5.364.12.139.21.35.29.634.03.255.04.436.04.542a2.4 2.4 0 0 1-.12.475c-.19.472-.41.876-.68 1.21a3.1 3.1 0 0 1-1.06.832q-.165.093-.39.142-.195.032-.42.021a2.2 2.2 0 0 1-.77-.176c-.24-.118-.42-.28-.56-.487l-.13-.166-.07.157c-.15.353-.27.681-.37.984-.08.303-.12.582-.13.835-.01.159-.01.313.01.461q.06.222.15.387c.05.082.13.146.25.192q.195.049.42.059l.28.013q.15-.012.3-.066c.23-.069.41-.147.55-.234q.225-.13.45-.28l.09-.036-.02-.001c.16-.072.3-.146.43-.22s.2-.111.2-.111c.05.003.11-.028.17-.092q.165-.073.39.078c.17.101.25.225.25.372-.02.066-.09.17-.2.311a3 3 0 0 1-.38.363q-.18.171-.3.186-.03.02-.15.073a.4.4 0 0 0-.16.073l.02.001c-.13.154-.25.228-.37.223l-.16-.008q-.09.137-.54.296c-.29.093-.58.133-.86.12m1.1-4.354q.36.018.63-.171c.19-.137.36-.29.5-.457q.42-.52.51-1.017.105-.516-.09-.725a.5.5 0 0 0-.22-.07c-.05-.016-.16-.001-.34.044q-.18.031-.51.276c-.22.164-.44.347-.67.55q-.315.306-.48.518l-.28.408a.9.9 0 0 1 .3-.046q.165-.013.18.028c-.01.12.01.234.04.342.05.096.11.172.17.228.08.057.17.088.26.092M1.09 92.235l-.066-.031a1 1 0 0 0-.164-.016 1 1 0 0 0-.2.01.67.67 0 0 1-.51-.287.78.78 0 0 1-.145-.564q.066-.092.068-.354 0-.264-.024-.422a2 2 0 0 0 .066-.232l.04-.41q.008-.345.057-.96l.139-1.356q.093-.722.175-1.382.083-.66.155-1.115.093-.459.143-.528l-.009-.059-.024-.158-.007-.181q.01-.203.132-.465a4 4 0 0 0 .076-.84q.063-.112.145-.508.099-.42.18-.816l.156-.712q.105-.38.164-.651l.08-.275-.015-.1q.067-.09.256-.847.207-.78.567-2.007.055-.17.144-.386.09-.216.077-.295a.27.27 0 0 1 .256-.18.65.65 0 0 1 .374.065q.216.089.347.291l.246.287-.497 1.531q-.233.601-.382 1.09-.129.483-.117.563l-.07.334q-.071.335-.164.794t-.157.833q-.125.645-.263 1.07-.119.424-.107.502-.005-.04.427-.125t1.104-.187l1.365-.206q.708-.127 1.242-.208.552-.104.743-.173l1.013-.254.365-2.138q.075-.579.212-1.408.138-.83.252-1.413.178-.959.324-1.202.145-.245.382-.28.06-.01.164.015a.5.5 0 0 1 .233.066.3.3 0 0 1 .185.154q.27.181.292.462.043.276-.206.78a6.4 6.4 0 0 0-.357 1.246q-.105.644-.204 1.063a1.2 1.2 0 0 1 0 .404.7.7 0 0 1-.105.239q-.033.045-.113.32-.08.276-.14.547-.06.273-.051.332.02.138-.009.345a.7.7 0 0 1-.097.298q-.02.125-.088.62Q9.08 83.26 9 83.94q-.082.66-.187 1.302-.109.623-.207 1.043a.9.9 0 0 1-.045.37.8.8 0 0 0-.045.372l-.108.623q-.066.374-.05.473-.03.47-.077.962-.027.49-.056.838-.006.364.004.424-.067.091-.235.056l-.396-.082q-.409-.16-.527-.406-.095-.228.054-.716.075-.173.12-.807.063-.658.129-1.294.074-.314.137-.83l.122-1.07q.057-.554.103-.926.042-.39.075-.436l-.02-.138-.01-.06q-.045-.033-.503.016-.46.03-1.13.15-.672.102-1.398.252-.71.128-1.27.293l-.93.14-.376.057-.138.021-.076.437q-.065.374-.145.911-.084.519-.181 1.08-.08.538-.134.99-.036.43-.048.615-.025.368-.084.923a19 19 0 0 1-.112 1.13q-.052.593-.108 1.027a8 8 0 0 1-.057.554m13.677-4.454a1.76 1.76 0 0 1-.906.562q-.525.14-1.072 0a2.14 2.14 0 0 1-.958-.583 2.26 2.26 0 0 1-.584-.924q-.186-.558-.244-1.48-.057-.78.261-1.617.316-.857.836-1.562.54-.71 1.117-1.039.267-.243.468-.253.217-.032.659-.059.463-.009.699.077.255.083.423.26.342.25.485.533.141.262.183.539-.014.447-.432 1.157-.402.688-1.153 1.206a2.8 2.8 0 0 1-.931.262q-.517.058-.89-.129-.4-.1-.485.135-.089.215-.068 1.021.034.764.286 1.09.249.306.594.314.407.02.63.026.241-.015.547-.264.287-.246.363-.277a.5.5 0 0 0 .107-.097l.218-.296q.117-.16.188-.231.066-.09.166-.106.099-.015.193.072.09.067.176.095.198-.03.115.225-.063.252-.329.636-.269.365-.662.707m-.653-4.19q.203-.13.413-.345.208-.234.333-.475.142-.264.118-.422-.042-.278-.326-.416-.287-.159-.78.057-.209.092-.45.371a5 5 0 0 0-.459.575q-.195.313-.32.554-.106.24-.06.273.073.09.36.107.282-.003.616-.073.352-.073.555-.205m5.302 3.61a1.8 1.8 0 0 1-.409.101 4 4 0 0 1-.464.01q-.187-.033-.195-.092-.015-.099-.114-.084l-.111-.064a.9.9 0 0 0-.281-.12 1.1 1.1 0 0 1-.268-.566q-.05-.336.02-1.075-.015-.503.202-1.204a12 12 0 0 1 .605-1.487q.37-.764.8-1.395.45-.635.847-.957a1 1 0 0 1 .628-.398q.391-.08.778.064.213.07.443.257t.448.418q.216.23.374.469.092.209.119.386.045.156.06.396.036.237.048.72-.045.372-.047.898.02.523.076.899.016.381.16.522.162.137.398-.04a.85.85 0 0 1 .44-.168q.218-.033.354.068.156.098.192.335t-.162.53q-.183.27-.491.5a1.4 1.4 0 0 1-.59.25q-.217.033-.454-.194a3.4 3.4 0 0 1-.454-.599 54 54 0 0 1-.37-.713l-.188-.436-.728.939q-.216.315-.437.592-.204.253-.248.36-.072.194-.322.414a3.6 3.6 0 0 1-.659.463m-.116-1.177q.306-.247.684-.69.375-.46.722-.978.345-.538.56-.975.269-.506.386-.928.12-.423.144-.79a1.8 1.8 0 0 0-.326-.416q-.216-.23-.358-.23-.435.066-.846.695a15 15 0 0 0-.923 1.656q-.105.238-.214.457l-.122.261a4 4 0 0 0-.169.491 40 40 0 0 0-.206.78q-.105.38-.086.498.018.12.058.254.06.133.225.148.165.016.47-.233m11.697.397a.5.5 0 0 1-.447-.013.7.7 0 0 1-.29-.32 5.5 5.5 0 0 1-.387-.953 5 5 0 0 1-.167-.966l-.023-.421-.678.73q-.583.694-1.177 1.047-.574.35-1.049.421a1.5 1.5 0 0 1-.459-.092 1.8 1.8 0 0 1-.44-.237 1.8 1.8 0 0 1-.314-.337q-.16-.26-.193-.74a5.8 5.8 0 0 1 .082-1.064q.111-.603.308-1.179.213-.6.525-1.07.504-1.088 1.222-1.42.72-.33 1.516-.006.547.141.663.102.135-.04.169-.49l.062-.657q.03-.348.123-.929.267-1.577.495-2.481.247-.907.448-1.585.15-.488.272-.608a.44.44 0 0 1 .302-.146.6.6 0 0 1 .42.098q.201.132.342.393a.6.6 0 0 1 .107.308q.019.119-.068.354-.185.513-.422 1.358-.219.822-.435 1.805-.195.981-.355 1.935t-.252 1.677a10 10 0 0 0-.05 1.14q.021.684.07 1.405.045.702.11 1.258.08.534.143.686.18.378.189.578.03.198-.06.273-.087.093-.302.146m-3.673-1.69q.267-.101.5-.298.255-.2.517-.463.525-.543.903-.986.38-.441.4-1.233-.016-.382-.168-.581a1.16 1.16 0 0 0-.402-.385q-.261-.122-.67-.02-.393.08-.768.541-.41.507-.754 1.307-.324.798-.38 1.898a.3.3 0 0 0 .166.299q.176.095.656-.079m7.512.24q-.82-.2-1.14-.717-.304-.54-.346-1.748a16 16 0 0 0-.083-.817q-.03-.198-.277-.363a1.7 1.7 0 0 0-.25-.184q-.16-.118-.155-.22a.8.8 0 0 1-.025-.3q.014-.183.092-.195a.36.36 0 0 0 .152-.064.21.21 0 0 1 .178-.027 1 1 0 0 1 .181-.007q.102.006.114.084.1.127.263 0 .16-.144.298-.57.15-.346.419-.71.288-.368.566-.673.294-.327.494-.479.093-.054.281-.143.19-.09.4-.162.232-.075.393-.08.36-.033.623.108.285.14.538.344.283.14.388.427.124.285.135.627.01.342-.085.64-.03.206-.265.525a5 5 0 0 1-.552.63q-.317.31-.596.474a5 5 0 0 1-.657.2q-.39.1-.746.154-.34.03-.467-.01-.15-.06-.184.25-.035.308.01.868.026.441.095.633.07.191.121.265.16.117.43.299.287.16.72-.049.362-.155.655-.624.312-.472.59-.777a.32.32 0 0 1 .233-.197.9.9 0 0 1 .419-.043q.238.105.228.31.007.18-.114.583-.038.147-.223.397a8 8 0 0 1-.392.484 3.6 3.6 0 0 1-.387.383q-.546.405-1.057.503a2.8 2.8 0 0 1-1.015-.028m.56-4.19q.42-.165.671-.243.25-.079.462-.292.207-.234.482-.822a.83.83 0 0 0-.026-.44q-.052-.216-.144-.282a.39.39 0 0 0-.453-.053 1.3 1.3 0 0 0-.422.286q-.13.08-.37.36-.224.255-.437.591-.215.316-.337.577t-.038.289q-.027.085.233.066.28-.022.379-.037m5.672 3.107q-.057.03-.201.01a2 2 0 0 1-.292-.057.7.7 0 0 1-.193-.072 1 1 0 0 1-.194-.213q-.083-.15-.069-.455.012-.326.273-.87.069-.213.148-.63.078-.416.151-.872.09-.479.155-.853.084-.376.123-.524-.012-.342-.111-.469-.084-.148-.364-.127-.197.03-.322.009-.105-.025-.159-.381-.002-.282.082-.397a2.4 2.4 0 0 1 .278-.304q.182-.129.374-.199.212-.072.413-.082a.5.5 0 0 1 .337.09q.15.06.232.33.078.25.12.527.06.275.102.41.174-.189.468-.516.312-.35.53-.646.283-.266.685-.549.4-.303.597-.333a.9.9 0 0 1 .453.053.6.6 0 0 1 .336.212q.249.306.267.567.039.257-.136.567a1.03 1.03 0 0 1-.441.43q-.262.141-.341.153-.12.017-.324-.133t-.242-.267q-.009-.06-.24.157-.213.195-.47.496a6 6 0 0 0-.43.51q-.272.465-.54 1.235-.27.768-.63 1.855a5.4 5.4 0 0 0-.208.901q-.048.351-.217.437M67 83.443c2.556-.706 5.012-1.375 7.464-2.052.489-.132.834-.227 1.422-.492.439-.192 1.36-.62 1.061-1.034-.284-.315-.527-.503-1.4-.352-2.25.399-4.428 1.122-6.594 1.829-1.912.625-3.361 1.13-5.022 1.78-.776.304-.9.808-.488 1.43.37.559.74 1.139 1.21 1.616 1.691 1.731 3.421 3.41 5.143 5.116.212.213.364.392.655.61.355.26.598.468.925.182.315-.27.048-.773-.138-.999-1.512-1.923-4.7-5.837-4.82-6.084 1.499.156 2.89.27 4.276.46 9.643 1.373 19.088 3.411 27.873 7.64 6.953 3.346 13.364 7.453 19.102 12.542.341.299.712.572 1.076.827.487.354.806.452 1.016.212.332-.499.066-.823-.123-1.1-.37-.559-.868-1.045-1.348-1.518-6.493-6.262-14.168-10.777-22.503-14.306-8.554-3.623-17.624-5.2-26.879-6.023-.49-.025-1.694-.199-1.909-.284"/><defs><clipPath id="a"><path fill="#fff" d="M80 0h1216v593H80z"/></clipPath><clipPath id="b"><path fill="#fff" d="M80 95.179C80 77.959 93.96 64 111.179 64H1153.82c17.22 0 31.18 13.96 31.18 31.179V593H80z"/></clipPath><clipPath id="d"><path fill="#fff" d="M815 327h161v88H815z"/></clipPath><clipPath id="f"><path fill="#fff" d="M921 40c0-22.091 17.909-40 40-40h295c22.09 0 40 17.909 40 40v570c0 22.091-17.91 40-40 40H961c-22.091 0-40-17.909-40-40z"/></clipPath><clipPath id="j"><path fill="#fff" d="M965.302 115.302h32v17.491h-32z"/></clipPath><clipPath id="k"><path fill="#fff" d="M1050.3 115.302h32v17.491h-32z"/></clipPath><clipPath id="l"><path fill="#fff" d="M1135.3 115.302h32v17.491h-32z"/></clipPath><clipPath id="m"><path fill="#fff" d="M1220.3 115.302h32v17.491h-32z"/></clipPath><clipPath id="p"><path fill="#fff" d="M1069.37 268.374h79.252v43.318h-79.252z"/></clipPath><linearGradient id="c" x1="-63.496" x2="1365.37" y1="-121.423" y2="-162.736" gradientUnits="userSpaceOnUse"><stop stop-color="#000205"/><stop offset="1" stop-color="#000205"/></linearGradient><linearGradient id="g" x1="872.302" x2="1357.59" y1="-227.836" y2="-231.711" gradientUnits="userSpaceOnUse"><stop stop-color="#000205"/><stop offset="1" stop-color="#000205"/></linearGradient><linearGradient id="h" x1="-48.698" x2="434.934" y1="-30.846" y2="-59.372" gradientUnits="userSpaceOnUse"><stop stop-color="#050003"/><stop offset="1" stop-color="#060004"/></linearGradient><linearGradient id="i" x1="-48.698" x2="436.425" y1="-91.485" y2="-101.133" gradientUnits="userSpaceOnUse"><stop stop-color="#000205"/><stop offset="1" stop-color="#000205"/></linearGradient><linearGradient id="n" x1="-48.698" x2="436.425" y1="-91.485" y2="-101.133" gradientUnits="userSpaceOnUse"><stop stop-color="#000205"/><stop offset="1" stop-color="#000205"/></linearGradient><linearGradient id="o" x1="-48.698" x2="433.805" y1="-23.835" y2="-60.665" gradientUnits="userSpaceOnUse"><stop stop-color="#000205"/><stop offset="1" stop-color="#000205"/></linearGradient></defs></svg>