<svg xmlns="http://www.w3.org/2000/svg" width="390" height="460" fill="none"><g clip-path="url(#a)"><g clip-path="url(#b)"><mask id="d" fill="#fff"><path d="M27 108.947C27 93.512 39.513 81 54.947 81h934.588c15.435 0 27.945 12.513 27.945 27.947v446.229H27z"/></mask><path fill="url(#c)" d="M27 108.947C27 93.512 39.513 81 54.947 81h934.588c15.435 0 27.945 12.513 27.945 27.947v446.229H27z"/><path fill="#fff" d="M154.622 127.831c-3.413 0-5.712-2.183-5.712-4.9h2.809c.024 1.254 1.208 2.392 2.973 2.392 1.625 0 2.67-.998 2.67-2.252 0-1.115-.952-1.765-2.299-2.136l-1.997-.558c-3.436-.882-4.04-2.949-4.04-4.342 0-2.833 2.484-4.76 5.433-4.76 2.926 0 5.225 1.811 5.225 4.807h-2.81c0-1.324-.998-2.276-2.484-2.276-1.37 0-2.508.929-2.508 2.183 0 .441.139 1.37 1.974 1.857l1.904.558c2.508.696 4.435 1.996 4.435 4.551 0 2.925-2.438 4.876-5.573 4.876M165.567 116.708h2.299v2.137h-2.299v8.707h-2.694v-8.707h-1.95v-2.137h1.95v-3.993h2.694zM175.034 116.43c.65 0 1.347.139 1.765.371l-.534 2.555a3.4 3.4 0 0 0-1.579-.395c-1.765 0-2.74 1.765-2.74 4.806v3.785h-2.717v-10.844h2.693v2.322c.581-1.811 1.765-2.6 3.112-2.6M185.467 122.514v-5.806h2.694v10.844h-2.694v-1.695c-.557 1.37-2.275 1.974-3.367 1.974-2.786 0-4.342-1.881-4.342-5.039v-6.084h2.694v5.968c0 1.742 1.045 2.647 2.252 2.647 1.231 0 2.763-.696 2.763-2.809M195.872 127.831c-3.135 0-5.898-2.276-5.898-5.712s2.763-5.689 5.898-5.689c1.881 0 3.413.836 4.412 2.09l-1.904 1.509c-.558-.673-1.487-1.091-2.462-1.091-1.881 0-3.227 1.346-3.227 3.181 0 1.811 1.346 3.204 3.227 3.204.975 0 1.904-.418 2.462-1.091l1.904 1.509c-.999 1.254-2.531 2.09-4.412 2.09M205.57 116.708h2.299v2.137h-2.299v8.707h-2.693v-8.707h-1.951v-2.137h1.951v-3.993h2.693zM215.293 116.43c3.041 0 5.503 2.391 5.503 5.689s-2.462 5.712-5.503 5.712c-1.812 0-3.53-.929-4.319-2.415v2.136h-1.487v-16.741h1.487v8.01c.812-1.486 2.484-2.391 4.319-2.391m-.117 9.984c2.299 0 4.157-1.904 4.157-4.318 0-2.392-1.858-4.25-4.157-4.25-2.159 0-4.202 1.695-4.202 4.319 0 2.508 1.95 4.249 4.202 4.249M227.999 127.831c-3.088 0-5.665-2.276-5.665-5.712s2.577-5.689 5.665-5.689 5.689 2.252 5.689 5.689c0 3.436-2.6 5.712-5.689 5.712m0-1.417c2.276 0 4.203-1.741 4.203-4.295s-1.927-4.273-4.203-4.273c-2.298 0-4.179 1.719-4.179 4.273s1.881 4.295 4.179 4.295M240.863 127.831c-3.088 0-5.666-2.276-5.666-5.712s2.578-5.689 5.666-5.689 5.689 2.252 5.689 5.689c0 3.436-2.601 5.712-5.689 5.712m0-1.417c2.276 0 4.203-1.741 4.203-4.295s-1.927-4.273-4.203-4.273c-2.299 0-4.18 1.719-4.18 4.273s1.881 4.295 4.18 4.295M251.869 127.831c-1.881 0-3.762-1.091-3.947-3.158h1.37c.162.906.998 1.834 2.577 1.834 1.556 0 2.508-.812 2.508-1.904 0-.882-.604-1.463-1.718-1.741l-1.556-.372c-1.533-.371-2.763-1.161-2.763-2.972 0-1.765 1.509-3.088 3.576-3.088 1.811 0 3.483.998 3.552 2.949h-1.439c-.07-.975-1.022-1.626-2.09-1.626-1.254 0-2.113.767-2.113 1.788 0 1.022.882 1.463 1.672 1.649l1.602.395c2.113.511 2.763 1.788 2.763 3.042 0 1.927-1.742 3.204-3.994 3.204M260.268 116.708h2.485v1.278h-2.485v9.566h-1.463v-9.566h-1.974v-1.278h1.974v-4.063h1.463z"/><path fill="#F67ACB" d="M139.059 111.946h-9.957c-.406 0-.493.029-.725.263l-7.895 7.375c-.232.234-.261.322-.261.732v4.332q0 3.686 3.657 3.687h9.957c.406 0 .493-.03.725-.264l7.895-7.375c.232-.234.261-.322.261-.731v-4.331q0-3.688-3.657-3.688"/><path fill="#fff" d="M367.026 118.263h44.716v1.863h-44.716zM120.221 210.076h307.453v1.793H120.221zM120.221 247.724h253.671v1.793H120.221zM120.221 285.371H290.53v1.793H120.221z"/><path stroke="#F67ACB" stroke-width=".932" d="M120.687 323.484h193.768v40.989H120.687z"/><path fill="#F67ACB" d="M141.756 347.479v-8.161h1.096v8.161zm.872-3.633v-.984l3.499-.011v.983zm0-3.544v-.984h3.689v.984zm8.306 7.177v-1.789h-.179v-2.068q0-.615-.324-.928-.313-.313-.928-.313-.346 0-.715.011l-.705.023a10 10 0 0 0-.581.033v-.939q.246-.023.514-.033.28-.023.571-.023.29-.01.558-.011.918 0 1.498.224.582.212.861.704.28.492.28 1.33v3.779zm-1.956.156q-.67 0-1.163-.223-.48-.235-.749-.671-.257-.436-.257-1.051 0-.637.28-1.062.29-.424.838-.637.548-.224 1.319-.224h1.621v.805h-1.666q-.648 0-.995.313a1.04 1.04 0 0 0-.346.805q0 .492.346.794.347.302.995.302.38 0 .727-.135.346-.145.57-.469.235-.336.257-.917l.291.425q-.056.638-.313 1.073-.246.425-.693.649-.436.223-1.062.223m4.06-.156v-1.196l3.253-3.902v.179l-.179-.268.145.067h-3.264v-.85h4.248v1.196l-3.253 3.902v-.157l.201.28-.156-.101h3.387v.85zm7.986.201q-.782 0-1.353-.268a2.6 2.6 0 0 1-.927-.705 3.1 3.1 0 0 1-.537-.995 3.8 3.8 0 0 1-.168-1.117v-.202q0-.581.168-1.129.178-.548.537-.983.357-.448.905-.705.56-.268 1.308-.268.972 0 1.599.425.636.413.939 1.073.313.66.313 1.408v.481h-5.299v-.805h4.516l-.246.436q0-.638-.201-1.095a1.57 1.57 0 0 0-.604-.727q-.402-.257-1.017-.257-.637 0-1.062.291a1.8 1.8 0 0 0-.626.793 3.1 3.1 0 0 0-.201 1.163q0 .638.201 1.151.213.504.648.805.436.291 1.107.291.705 0 1.14-.313.447-.313.537-.727h1.006q-.123.615-.492 1.062a2.37 2.37 0 0 1-.928.682 3.2 3.2 0 0 1-1.263.235m3.972-.201v-5.97h.85v2.46h-.045q0-1.309.57-1.912.582-.615 1.733-.615h.201v.961h-.38q-.894 0-1.375.481-.481.47-.481 1.364v3.231zm6.458 2.236v-8.206h.85v2.583l-.202-.023q.057-.961.403-1.565.358-.615.928-.905t1.241-.291q.648 0 1.173.246.537.245.917.671.38.425.581.983.202.56.202 1.185v.202q0 .625-.213 1.185-.212.558-.603.983a2.76 2.76 0 0 1-2.08.917q-.637 0-1.218-.28-.582-.28-.962-.905-.38-.626-.436-1.643l.492.894v3.969zm3.03-2.974q.603 0 1.05-.28.448-.29.693-.793.246-.514.246-1.174 0-.67-.246-1.174a1.881 1.881 0 0 0-1.743-1.073q-.537 0-.995.246a1.8 1.8 0 0 0-.738.693q-.268.448-.268 1.084v.515q0 .614.279 1.05t.738.671q.457.235.984.235m7.953.738v-1.789h-.179v-2.068q0-.615-.324-.928-.313-.313-.928-.313-.347 0-.716.011l-.704.023a10 10 0 0 0-.581.033v-.939q.246-.023.514-.033.28-.023.57-.023.29-.01.559-.011.917 0 1.498.224.582.212.861.704t.279 1.33v3.779zm-1.956.156q-.672 0-1.163-.223a1.77 1.77 0 0 1-.749-.671q-.257-.436-.257-1.051 0-.637.279-1.062.291-.424.839-.637.548-.224 1.319-.224h1.621v.805h-1.666q-.648 0-.995.313a1.04 1.04 0 0 0-.346.805q0 .492.346.794.347.302.995.302.38 0 .727-.135.346-.145.57-.469.234-.336.257-.917l.291.425q-.057.638-.313 1.073-.246.425-.693.649-.436.223-1.062.223m4.44-.156v-5.97h.849v2.46h-.044q0-1.309.57-1.912.58-.615 1.733-.615h.201v.961h-.38q-.895 0-1.375.481-.481.47-.481 1.364v3.231zm6.684.067q-.67 0-1.163-.19a1.48 1.48 0 0 1-.749-.649q-.257-.47-.257-1.263v-5.746h1.029v5.88q0 .481.257.749.268.257.749.257h1.051v.962zm-3.197-5.232v-.805h4.114v.805zm7.79 5.366q-.783 0-1.353-.268a2.6 2.6 0 0 1-.927-.705 3.1 3.1 0 0 1-.537-.995 3.8 3.8 0 0 1-.168-1.117v-.202q0-.581.168-1.129.179-.548.537-.983.357-.448.905-.705.56-.268 1.308-.268.972 0 1.599.425.636.413.939 1.073.313.66.313 1.408v.481h-5.299v-.805h4.516l-.246.436q0-.638-.201-1.095a1.57 1.57 0 0 0-.604-.727q-.402-.257-1.017-.257-.637 0-1.062.291a1.8 1.8 0 0 0-.626.793 3.1 3.1 0 0 0-.201 1.163q0 .638.201 1.151.213.504.648.805.436.291 1.107.291.705 0 1.14-.313.447-.313.537-.727h1.006q-.123.615-.492 1.062a2.37 2.37 0 0 1-.928.682 3.2 3.2 0 0 1-1.263.235m8.673 0a2.9 2.9 0 0 1-1.174-.235 2.9 2.9 0 0 1-.939-.659 3.2 3.2 0 0 1-.615-.984 3.4 3.4 0 0 1-.212-1.207v-.202q0-.636.212-1.196.213-.558.593-.984a2.805 2.805 0 0 1 2.102-.905q.681 0 1.24.291.56.279.917.883.358.603.403 1.565l-.448-.716v-4.013h1.074v8.161h-.85v-2.65h.313q-.044 1.018-.425 1.655-.38.626-.961.916-.57.28-1.23.28m.145-.939q.549 0 .995-.246.448-.246.716-.704.268-.47.268-1.096v-.514q0-.614-.279-1.04a1.73 1.73 0 0 0-.727-.659 2.1 2.1 0 0 0-.984-.235q-.592 0-1.051.279a1.95 1.95 0 0 0-.704.783q-.246.502-.246 1.185 0 .682.257 1.196.257.502.716.783.458.267 1.039.268m8.345.738v-1.789h-.179v-2.068q0-.615-.324-.928-.313-.313-.928-.313-.346 0-.715.011l-.705.023a10 10 0 0 0-.581.033v-.939q.246-.023.514-.033.28-.023.57-.023.291-.01.559-.011.918 0 1.498.224.582.212.861.704.28.492.28 1.33v3.779zm-1.956.156q-.67 0-1.163-.223-.48-.235-.749-.671-.257-.436-.257-1.051 0-.637.279-1.062.291-.424.839-.637.548-.224 1.319-.224h1.621v.805h-1.666q-.648 0-.995.313a1.04 1.04 0 0 0-.346.805q0 .492.346.794.347.302.995.302.38 0 .727-.135.346-.145.57-.469.235-.336.257-.917l.291.425q-.056.638-.313 1.073-.246.425-.693.649-.436.223-1.062.223m6.715-.156v-8.161h1.073v8.161zm-.827-7.311v-.85h1.9v.85zm3.914 7.311v-5.97h1.073v5.97zm-.917-5.12v-.85h1.99v.85zm1.219-1.811q-.357 0-.537-.19a.7.7 0 0 1-.167-.481q0-.29.167-.481.18-.19.537-.19t.525.19q.18.19.179.481a.67.67 0 0 1-.179.481q-.167.19-.525.19m4.467 7.11q-1.173 0-1.822-.503-.638-.504-.659-1.375h1.006q.022.346.346.659.336.302 1.129.302.715 0 1.096-.28.38-.29.38-.704a.66.66 0 0 0-.28-.57q-.28-.213-.905-.279l-.648-.068q-.85-.089-1.387-.503-.536-.425-.536-1.185 0-.57.29-.972.29-.414.805-.626a2.95 2.95 0 0 1 1.185-.224q1.007 0 1.632.447.627.448.649 1.331h-1.006q-.012-.358-.336-.604-.312-.257-.939-.257-.626 0-.95.257a.8.8 0 0 0-.324.648q0 .336.223.537.235.201.761.257l.648.067q.961.1 1.543.537.58.424.581 1.207 0 .559-.324.995-.314.425-.872.671a3.3 3.3 0 0 1-1.286.235m6.027-.112q-.67 0-1.162-.19a1.47 1.47 0 0 1-.749-.649q-.258-.47-.257-1.263v-5.746h1.028v5.88q0 .481.257.749.269.257.749.257h1.051v.962zm-3.197-5.232v-.805h4.114v.805zm8.885 5.165v-1.789h-.178v-2.068q0-.615-.325-.928-.312-.313-.928-.313-.346 0-.715.011l-.704.023a10 10 0 0 0-.582.033v-.939q.246-.023.515-.033.279-.023.57-.023.29-.01.559-.011.916 0 1.498.224.58.212.861.704.279.492.279 1.33v3.779zm-1.956.156q-.67 0-1.163-.223-.48-.235-.749-.671-.257-.436-.257-1.051 0-.637.28-1.062.29-.424.838-.637.548-.224 1.319-.224h1.621v.805h-1.665q-.649 0-.995.313a1.04 1.04 0 0 0-.347.805q0 .492.347.794.346.302.995.302.38 0 .726-.135.346-.145.57-.469.235-.336.258-.917l.29.425q-.055.638-.313 1.073-.246.425-.693.649-.437.223-1.062.223m9.141.045q-.637 0-1.173-.235a2.85 2.85 0 0 1-.939-.659 3.2 3.2 0 0 1-.615-.984 3.4 3.4 0 0 1-.213-1.207v-.202q0-.636.213-1.196.212-.558.592-.984a2.812 2.812 0 0 1 2.102-.905q.682 0 1.241.291.559.279.916.883.358.603.403 1.565l-.447-.716v-4.013h1.073v8.161h-.85v-2.65h.313q-.044 1.018-.424 1.655-.38.626-.962.916-.57.28-1.23.28m.146-.939q.548 0 .995-.246t.715-.704q.268-.47.268-1.096v-.514q0-.614-.279-1.04a1.73 1.73 0 0 0-.727-.659 2.1 2.1 0 0 0-.983-.235 2 2 0 0 0-1.051.279 1.95 1.95 0 0 0-.704.783q-.246.502-.246 1.185 0 .682.257 1.196.257.502.715.783.458.267 1.04.268m7.271.939q-.782 0-1.352-.268a2.6 2.6 0 0 1-.928-.705 3.1 3.1 0 0 1-.537-.995 3.8 3.8 0 0 1-.168-1.117v-.202q0-.581.168-1.129.178-.548.537-.983.357-.448.905-.705.56-.268 1.308-.268.972 0 1.599.425.636.413.939 1.073.313.66.313 1.408v.481h-5.299v-.805h4.516l-.246.436q0-.638-.201-1.095a1.57 1.57 0 0 0-.604-.727q-.402-.257-1.017-.257-.637 0-1.062.291a1.8 1.8 0 0 0-.626.793 3.1 3.1 0 0 0-.201 1.163q0 .638.201 1.151.213.504.648.805.436.291 1.107.291.705 0 1.14-.313.448-.313.537-.727h1.006q-.123.615-.492 1.062a2.37 2.37 0 0 1-.928.682 3.2 3.2 0 0 1-1.263.235m8.718 0q-.783 0-1.353-.268a2.6 2.6 0 0 1-.928-.705 3.1 3.1 0 0 1-.536-.995 3.8 3.8 0 0 1-.168-1.117v-.202q0-.581.168-1.129.179-.548.536-.983.358-.448.906-.705.56-.268 1.308-.268.972 0 1.599.425.636.413.939 1.073.313.66.313 1.408v.481h-5.299v-.805h4.516l-.246.436q0-.638-.201-1.095a1.57 1.57 0 0 0-.604-.727q-.402-.257-1.017-.257-.637 0-1.062.291a1.8 1.8 0 0 0-.626.793 3.1 3.1 0 0 0-.201 1.163q0 .638.201 1.151.213.504.648.805.437.291 1.107.291.705 0 1.14-.313.447-.313.537-.727h1.006q-.123.615-.492 1.062a2.37 2.37 0 0 1-.928.682 3.2 3.2 0 0 1-1.263.235m5.928-.022q-1.173 0-1.822-.503-.638-.504-.659-1.375h1.006q.022.346.346.659.336.302 1.129.302.715 0 1.096-.28.38-.29.38-.704a.66.66 0 0 0-.28-.57q-.28-.213-.905-.279l-.648-.068q-.85-.089-1.387-.503-.536-.425-.536-1.185 0-.57.29-.972.29-.414.805-.626a2.95 2.95 0 0 1 1.185-.224q1.007 0 1.632.447.627.448.649 1.331h-1.006q-.012-.358-.336-.604-.312-.257-.939-.257-.626 0-.95.257a.8.8 0 0 0-.324.648q0 .336.223.537.235.201.761.257l.648.067q.961.1 1.543.537.58.424.581 1.207 0 .559-.324.995-.314.425-.872.671a3.3 3.3 0 0 1-1.286.235m3.702 2.057v-8.206h.85v2.583l-.202-.023q.057-.961.403-1.565.357-.615.928-.905.57-.291 1.24-.291.65 0 1.174.246.537.245.917.671.38.425.581.983.201.56.201 1.185v.202q0 .625-.212 1.185-.213.558-.604.983a2.76 2.76 0 0 1-2.079.917q-.637 0-1.218-.28-.582-.28-.962-.905-.38-.626-.436-1.643l.492.894v3.969zm3.029-2.974q.604 0 1.051-.28.447-.29.693-.793.246-.514.246-1.174 0-.67-.246-1.174a1.882 1.882 0 0 0-1.744-1.073q-.536 0-.994.246a1.8 1.8 0 0 0-.738.693q-.269.448-.269 1.084v.515q0 .614.28 1.05.279.437.738.671t.983.235m6.881.939q-.783 0-1.353-.268a2.6 2.6 0 0 1-.928-.705 3.2 3.2 0 0 1-.537-.995 3.8 3.8 0 0 1-.167-1.117v-.202q0-.581.167-1.129.18-.548.537-.983.358-.448.906-.705.558-.268 1.307-.268.974 0 1.599.425.638.413.939 1.073.313.66.313 1.408v.481h-5.299v-.805h4.517l-.246.436q0-.638-.202-1.095a1.58 1.58 0 0 0-.603-.727q-.403-.257-1.018-.257-.636 0-1.062.291a1.8 1.8 0 0 0-.626.793 3.1 3.1 0 0 0-.201 1.163q0 .638.201 1.151.213.504.649.805.436.291 1.107.291.704 0 1.14-.313.447-.313.536-.727h1.007q-.123.615-.492 1.062a2.4 2.4 0 0 1-.928.682 3.2 3.2 0 0 1-1.263.235m3.971-.201v-5.97h.85v2.46h-.045q0-1.309.57-1.912.582-.615 1.733-.615h.201v.961h-.38q-.894 0-1.375.481-.48.47-.48 1.364v3.231zm7.839 0v-1.789h-.179v-2.068q0-.615-.324-.928-.313-.313-.928-.313-.346 0-.715.011l-.704.023a10 10 0 0 0-.582.033v-.939q.246-.023.514-.033.28-.023.571-.023.29-.01.559-.011.916 0 1.498.224.58.212.86.704t.28 1.33v3.779zm-1.956.156q-.67 0-1.163-.223-.48-.235-.749-.671-.257-.436-.257-1.051 0-.637.28-1.062.29-.424.838-.637.548-.224 1.319-.224h1.621v.805h-1.666q-.648 0-.994.313a1.04 1.04 0 0 0-.347.805q0 .492.347.794.346.302.994.302.38 0 .727-.135.346-.145.57-.469.235-.336.257-.917l.291.425q-.056.638-.313 1.073-.246.425-.693.649-.436.223-1.062.223"/><path stroke="#F67ACB" stroke-linecap="round" stroke-linejoin="round" stroke-width="1.345" d="m130.079 400.794-6.161 6.161-3.697-3.696"/><path fill="#fff" d="M144.421 402.978h62.745v1.793h-62.745z"/><path stroke="#F67ACB" stroke-linecap="round" stroke-linejoin="round" stroke-width="1.345" d="m130.079 435.639-6.161 6.162-3.697-3.697"/><path fill="#fff" d="M144.421 437.823h62.745v1.793h-62.745z"/><path fill="#F67ACB" d="M333.86 349.447a19 19 0 0 1-.572-.185 1.9 1.9 0 0 1-.55-.332q-.251-.213-.466-.627a5.6 5.6 0 0 1-.335-.997 9 9 0 0 1-.133-1.159 9 9 0 0 1-.009-1.618q.086-.708.311-1.447a2 2 0 0 0 .101-.314q.084-.278.184-.591.117-.316.175-.482.118-.316.362-.84.26-.543.559-1.054.454-.812.757-1.287.303-.476.581-.804a5.4 5.4 0 0 1 .631-.628q.369-.318.942-.781a1.53 1.53 0 0 1 .833-.374q.48-.058.91.139.43.181.662.593.227.358.272.894a4.2 4.2 0 0 1-.069 1.122 5 5 0 0 1-.355 1.127 3.3 3.3 0 0 1-.589.912q-.215.233-.416.197-.183-.039-.452-.25a4 4 0 0 1-.209-.342q-.005-.054.066-.078.096-.134.25-.453.153-.318.303-.673.15-.372.203-.593.08-.762.109-1.07.026-.325-.148-.473-.077-.066-.219-.036-.125.029-.414.214-.396.214-1.005.894a9.6 9.6 0 0 0-1.102 1.459 33 33 0 0 0-1.056 1.78 6.2 6.2 0 0 0-.607 1.561q-.03.074-.103.279l-.055.201q.024.071-.024.363a3 3 0 0 1-.122.477 9 9 0 0 0-.089 1.735q.037.879.219 1.547.199.667.489.912.246.142.635.055.407-.088.908-.327t1.018-.516a6 6 0 0 0 .753-.459q.34-.244.505-.421.134-.118.339-.244.222-.143.383-.157.243-.11.28-.095t.049.157q.022.25-.239.578a2.8 2.8 0 0 1-.651.612 3 3 0 0 1-.35.335q-.22.18-.461.29a5.6 5.6 0 0 1-.883.632 6 6 0 0 1-1.092.504 2.3 2.3 0 0 1-1.014.138m9.371-1.302a.17.17 0 0 1-.156.066q-.09.009-.294-.065-.346-.061-.451-.232-.084-.155.061-.563.06-.13.135-.551.089-.439.185-1.004l.194-1.133.169-.985.096-.583q-.012-.143.023-.578.054-.437.081-.978a2.7 2.7 0 0 0 .199-.845q.052-.453.072-.653.047-.293.11-.62.08-.332.125-.658.047-.294.094-.602.063-.312.056-.4l-.024-.286-.661.054q-.266.041-.786.066t-.93.06q-.842.034-1.14-.067-.28-.12-.347-.51-.055-.212.063-.312t.581-.156 1.431-.102q.747-.098 1.304-.108.555-.029.627-.035a.3.3 0 0 0 .077-.15.7.7 0 0 1 .042-.148 1 1 0 0 1 .001-.198q.025-.127.164-.193.12-.28.304-.242.198.02.419.29.086.154.153.329.088.172.224.305.065-.078.368-.121.303-.044.64-.089.41-.034.731-.079.319-.063.443-.073a.85.85 0 0 1 .404-.124 4 4 0 0 1 .539-.009 3 3 0 0 1 .575-.012q.18.022.243.106l.011.143q.024.07.102.136.077.065.08.1a1 1 0 0 1-.058.168.6.6 0 0 1-.24.145 2 2 0 0 1-.39.069 4 4 0 0 0-.426.071 10 10 0 0 1-.516.062q-.405.105-.919.202-.498.077-1.12.165a3.4 3.4 0 0 0-.497.077q-.23.038-.223.128-.071.005-.165.39-.076.385-.149.804-.068.474-.165.824-.08.349-.142.462a.19.19 0 0 1 .069.174q.01.107-.076.384a2.4 2.4 0 0 1-.11.405.8.8 0 0 0-.03.29l-.065.293a8 8 0 0 0-.087.691 4 4 0 0 1-.052.671q-.031.271-.097.349.001 0-.061.131a.45.45 0 0 0-.05.256q.014.16-.027.542a9 9 0 0 1-.069.689q-.044.328-.095.369.182.02-.013.486.015.179-.024.362a1 1 0 0 0-.033.254q-.078.349-.187.772l-.191.735q-.08.33-.129.389m3.55-.188q-.338-.153-.39-.363-.036-.214.187-.772.224-.558.702-1.732.361-.839.539-1.304.193-.483.248-.686.073-.204.068-.258-.049-.157.015-.253a.53.53 0 0 1 .217-.198q.083-.096.259-.345.195-.25.347-.587.13-.388.311-.8.183-.41.49-1.03l.798-1.649q.305-.655.681-1.335.373-.696.802-1.379.175-.267.324-.423.148-.175.31-.17.215-.017.494.103.298.119.55.332a1.5 1.5 0 0 1 .381.472q.1.135.122.601.02.466.022 1.131.002.666-.007 1.423.008.736-.016 1.746-.024 1.009-.041 2.108.002 1.098.034 2.12.029 1.005.146 1.751.03.159.025.304a2 2 0 0 0 .002.234q-.098.115-.351.118a1.1 1.1 0 0 1-.473-.068q-.223-.089-.273-.248a.27.27 0 0 1-.083-.136 12 12 0 0 1-.018-.43 34 34 0 0 0-.049-1.022l-.152-2.902-.231.038a10 10 0 0 0-.604.086q-.443.073-.956.188-.513.096-.954.206a3.5 3.5 0 0 0-.581.156q-.16.013-.375.247a2.7 2.7 0 0 0-.365.588q-.05.256-.223.559-.156.282-.149.371a.9.9 0 0 0-.196.233l-.061.131q.008.107-.134.551-.127.424-.334.962a8 8 0 0 1-.426.918l-.329.603zm3.218-6.062.176-.051q.194-.051.44-.108.263-.076.479-.093.734-.242 1.07-.324.333-.1.458-.11a.55.55 0 0 1 .255.033q.079.084.134.097l.073.011q.014-.037.02-.415l.011-.936q.025-.561.03-1.154.021-.613.015-1.117a114 114 0 0 0-.027-1.401l-.006-.287q-.107.009-.432.432-.307.421-.681 1.1-.376.678-.69 1.443-.15.354-.288.635-.14.282-.229.289a4 4 0 0 0-.187.339q-.139.282-.305.656a7 7 0 0 0-.27.651q-.102.28-.046.31"/></g><path fill="#fff" d="M26.104 108.947c0-15.93 12.913-28.843 28.843-28.843h934.588c15.925 0 28.845 12.913 28.845 28.843h-1.79c0-14.94-12.12-27.05-27.055-27.05H54.947c-14.94 0-27.05 12.11-27.05 27.05zm991.376 446.229H27zm-991.376 0V108.947c0-15.93 12.913-28.843 28.843-28.843v1.792c-14.94 0-27.05 12.111-27.05 27.051v446.229zM989.535 80.104c15.925 0 28.845 12.913 28.845 28.843v446.229h-1.79V108.947c0-14.94-12.12-27.05-27.055-27.05z" mask="url(#d)"/><path fill="#F67ACB" d="m19.832 62.924-.043-.038a1 1 0 0 0-.278-.082.53.53 0 0 1-.327-.327.62.62 0 0 1 .009-.462q.071-.056.127-.257.057-.2.072-.326.078-.118.1-.164l.117-.305q.08-.262.248-.72l.395-1.007q.225-.53.428-1.018.203-.486.356-.819.168-.33.221-.372l.006-.047.016-.126q0 0 .033-.14a1 1 0 0 1 .2-.327 3.3 3.3 0 0 0 .236-.626q.072-.07.22-.357.164-.3.31-.585l.27-.51q.162-.268.265-.463l.12-.193.007-.063.002-.016q.07-.054.377-.593.323-.55.86-1.412.078-.118.192-.264.113-.146.121-.209a.22.22 0 0 1 .234-.083.5.5 0 0 1 .272.129.6.6 0 0 1 .203.296l.127.272-.706 1.064a13 13 0 0 0-.523.75q-.202.343-.21.406l-.125.24q-.125.24-.293.572-.17.33-.298.602a7 7 0 0 1-.429.763q-.18.297-.188.36.004-.032.352-.005t.884.092l1.086.133q.569.054.993.106.444.039.604.026l.829.022.733-1.556q.18-.426.462-1.03t.493-1.026q.34-.693.503-.85a.42.42 0 0 1 .352-.132q.047.006.122.047a.4.4 0 0 1 .164.1q.088.06.108.157.168.196.125.415-.026.22-.323.551a5 5 0 0 0-.538.877q-.218.47-.382.768a.9.9 0 0 1-.086.31.6.6 0 0 1-.131.159 1.2 1.2 0 0 0-.155.22q-.12.195-.224.389-.103.195-.109.242a1 1 0 0 1-.08.262.54.54 0 0 1-.137.206q-.043.09-.2.455-.156.364-.361.867a27 27 0 0 1-.42.955q-.216.453-.38.752a.7.7 0 0 1-.114.274.65.65 0 0 0-.113.274l-.216.453q-.129.271-.138.35-.123.353-.264.719-.126.367-.22.628a4 4 0 0 0-.089.325q-.07.054-.19-.008l-.286-.147q-.277-.21-.316-.422-.024-.195.194-.535.093-.117.264-.591.188-.489.373-.961a7 7 0 0 0 .282-.605l.596-1.476q.115-.29.15-.317l.02-.158q-.027-.035-.388-.095a8 8 0 0 0-.895-.126q-.535-.066-1.122-.105a10 10 0 0 0-1.032-.047l-.394-.048-.346-.042-.41-.05-.15.317q-.13.271-.305.665l-.368.786q-.177.394-.313.729-.12.32-.168.458a22 22 0 0 1-.26.688q-.146.413-.326.838-.167.443-.302.762-.119.32-.162.412m11.396-.49q-.366.242-.812.236a1.66 1.66 0 0 1-.819-.228 1.7 1.7 0 0 1-.607-.65 1.8 1.8 0 0 1-.25-.83q-.024-.465.128-1.182.123-.607.544-1.18.424-.586.972-1.015.563-.427 1.074-.555.255-.129.41-.094.174.021.517.095.356.092.517.208a.8.8 0 0 1 .269.288 1.25 1.25 0 0 1 .281.961q-.105.339-.576.793a3 3 0 0 1-1.137.675q-.36.068-.767.002-.409-.066-.652-.288-.284-.162-.4 0-.113.145-.269.765-.135.591-.013.893a.61.61 0 0 0 .386.367q.307.102.476.154.188.04.474-.085.271-.128.336-.135a.4.4 0 0 0 .102-.051l.23-.18q.124-.097.193-.136a.2.2 0 0 1 .149-.046q.078.01.132.096a.5.5 0 0 0 .114.11q.158.02.04.197-.102.18-.386.416a3.5 3.5 0 0 1-.656.399m.393-3.34q.183-.057.389-.175.208-.135.355-.292.165-.172.18-.298.027-.22-.16-.387-.185-.182-.608-.122-.18.026-.423.188a4 4 0 0 0-.473.341q-.216.198-.363.355-.132.16-.104.195.038.085.252.159.217.058.487.075.285.02.468-.038m3.282 3.886q-.13.015-.335-.01a3 3 0 0 1-.356-.09q-.136-.066-.13-.113.01-.078-.07-.088l-.07-.073a.7.7 0 0 0-.19-.15.86.86 0 0 1-.083-.49q.033-.268.244-.817.095-.388.41-.876.333-.502.779-1.008.446-.504.908-.895.48-.389.85-.55a.8.8 0 0 1 .565-.171q.316.023.58.215.15.098.285.29.136.192.252.414.117.222.186.439.026.179.009.32 0 .127-.038.315a5 5 0 0 1-.117.56 6 6 0 0 0-.227.676q-.097.404-.133.703-.068.295.01.432.096.14.313.055a.67.67 0 0 1 .372-.035q.172.021.256.127.098.109.075.297-.023.19-.237.37-.195.17-.48.277a1.1 1.1 0 0 1-.504.066q-.174-.02-.306-.245a2.7 2.7 0 0 1-.22-.554 44 44 0 0 1-.13-.623l-.05-.373-.757.562q-.23.195-.46.36-.21.15-.266.222a.9.9 0 0 1-.334.247q-.222.117-.601.214m.16-.923q.288-.124.67-.382.385-.272.76-.594.377-.337.636-.625.312-.33.492-.626.18-.298.278-.574a1.4 1.4 0 0 0-.16-.387q-.117-.222-.225-.25-.347-.044-.794.35a12 12 0 0 0-1.058 1.068 167.606 167.606 0 0 0-.41.477 3 3 0 0 0-.233.339q-.16.268-.323.552-.16.268-.172.362-.011.095-.01.206.02.115.14.162.123.046.41-.078m8.851 2.793a.4.4 0 0 1-.338-.105.57.57 0 0 1-.154-.307 4.4 4.4 0 0 1-.093-.81q.006-.447.079-.773l.072-.327-.674.413q-.593.406-1.122.55-.513.144-.89.098a1.2 1.2 0 0 1-.331-.168 1.4 1.4 0 0 1-.287-.275 1.4 1.4 0 0 1-.167-.324q-.068-.233.01-.606.093-.372.289-.795.213-.438.486-.835.29-.412.63-.706.615-.724 1.234-.824.62-.099 1.16.318.388.223.484.22.113-.003.234-.34l.187-.488q.096-.26.292-.683.54-1.148.906-1.79.382-.642.68-1.116.217-.34.337-.406a.35.35 0 0 1 .261-.048.47.47 0 0 1 .3.165q.126.143.178.373.046.15.016.258a.6.6 0 0 1-.127.256q-.25.352-.611.947-.344.582-.717 1.287-.358.707-.683 1.402-.325.694-.55 1.227-.137.335-.28.86a33 33 0 0 0-.246 1.089q-.114.544-.184.984-.052.425-.036.554.056.327.02.482-.019.158-.103.195a.5.5 0 0 1-.262.048m-2.446-2.073q.226-.02.446-.121.236-.099.493-.243.518-.305.9-.561t.568-.857q.068-.296-.005-.48a.9.9 0 0 0-.225-.38q-.174-.148-.508-.157-.317-.024-.702.25-.42.3-.853.837-.418.54-.695 1.37a.24.24 0 0 0 .063.263q.116.11.518.079m5.686 1.783q-.582-.327-.718-.791-.117-.478.11-1.409.09-.483.11-.641.019-.157-.135-.336a1.3 1.3 0 0 0-.152-.195q-.096-.123-.071-.2a.6.6 0 0 1 .044-.234q.05-.139.112-.13.063.008.13-.016a.17.17 0 0 1 .142.017 1 1 0 0 1 .14.033q.076.025.068.088.05.118.201.057.153-.077.35-.373.188-.232.47-.453a10 10 0 0 1 .576-.393 3 3 0 0 1 .479-.261q.083-.022.246-.05t.34-.038q.193-.009.317.023a.85.85 0 0 1 .453.215q.187.167.337.377a.6.6 0 0 1 .206.408q.033.244-.03.508-.064.264-.202.47-.066.153-.314.346-.247.193-.556.363a2.5 2.5 0 0 1-.556.235q-.21.023-.545.014a6 6 0 0 1-.602-.042q-.266-.048-.354-.108-.102-.076-.194.152a4 4 0 0 0-.178.666q-.074.342-.061.503.012.162.036.228.096.125.264.32.185.183.561.117.309-.042.633-.338.339-.294.616-.468a.25.25 0 0 1 .22-.1.7.7 0 0 1 .329.056q.159.13.108.285-.033.14-.21.421-.061.105-.256.256a6 6 0 0 1-.402.287q-.21.135-.378.21-.503.194-.914.159a2.2 2.2 0 0 1-.77-.238m1.32-3.082q.357-.036.565-.043a.9.9 0 0 0 .415-.125q.209-.134.543-.524a.66.66 0 0 0 .074-.343q.006-.174-.05-.245a.31.31 0 0 0-.334-.137 1.1 1.1 0 0 0-.384.129 1.6 1.6 0 0 0-.36.195q-.225.148-.459.36a3.4 3.4 0 0 0-.38.368q-.15.174-.09.213-.04.059.163.1.219.042.297.052m3.671 3.581q-.049.01-.155-.035a2 2 0 0 1-.211-.106.5.5 0 0 1-.132-.096.7.7 0 0 1-.103-.204q-.032-.131.045-.362.078-.246.393-.607.099-.147.247-.449.15-.3.301-.634.171-.346.3-.619.144-.27.206-.374.063-.263.014-.381-.031-.132-.25-.175a.8.8 0 0 1-.248-.062q-.075-.041-.04-.325.059-.217.147-.285.106-.083.276-.174.167-.06.329-.072.177-.01.332.025t.239.141q.102.077.107.3a3 3 0 0 1-.02.43 5 5 0 0 0-.01.334q.172-.106.468-.294a7 7 0 0 0 .541-.381q.273-.142.641-.273.37-.147.527-.127.173.021.335.137.164.1.21.233.126.286.084.49-.024.204-.225.403a.8.8 0 0 1-.428.236q-.229.051-.293.044-.095-.012-.219-.171-.123-.159-.128-.255.006-.048-.216.069a4 4 0 0 0-.466.279 5 5 0 0 0-.436.298q-.307.297-.676.827t-.876 1.283a4.3 4.3 0 0 0-.35.644q-.113.258-.26.288M72.047 70.24c2.103.004 4.122.017 6.139.021.402.003.685.005 1.191-.073.376-.053 1.171-.184 1.03-.564-.15-.3-.295-.496-.993-.567-1.804-.174-3.623-.085-5.427-.007-1.594.07-2.808.148-4.215.291-.657.067-.86.425-.677.989.163.505.322 1.027.58 1.492.923 1.682 1.888 3.333 2.84 5.002.116.208.194.377.37.605.216.274.357.485.668.336.297-.139.2-.58.107-.792-.746-1.79-2.348-5.459-2.387-5.674 1.112.44 2.15.822 3.169 1.263 7.073 3.1 13.853 6.668 19.663 11.768 4.599 4.037 8.621 8.538 11.921 13.647.197.3.422.588.645.86.297.374.52.517.731.379.36-.311.226-.615.141-.867-.164-.506-.441-.983-.707-1.446-3.626-6.166-8.528-11.248-14.143-15.718-5.762-4.588-12.354-7.724-19.248-10.322-.37-.124-1.251-.512-1.398-.623"/><g clip-path="url(#e)"><mask id="r" fill="#fff"><path d="M208 33.539C208 15.016 223.016 0 241.538 0h247.347c18.522 0 33.538 15.016 33.538 33.539v477.923c0 18.522-15.016 33.538-33.538 33.538H241.538C223.016 545 208 529.984 208 511.462z"/></mask><path fill="url(#f)" d="M208 33.539C208 15.016 223.016 0 241.538 0h247.347c18.522 0 33.538 15.016 33.538 33.539v477.923c0 18.522-15.016 33.538-33.538 33.538H241.538C223.016 545 208 529.984 208 511.462z"/><path fill="url(#g)" d="M0 0h314.423v73.785H0z" transform="translate(208)"/><path fill="url(#h)" d="M0 0h314.423v218.838H0z" transform="translate(208 423.423)"/><rect width="273.338" height="204.585" x="228.542" y="430.55" stroke="#fff" stroke-width=".838" rx="9.642"/><circle cx="258.307" cy="103.969" r="29.9" stroke="#343434" stroke-width=".57"/><g clip-path="url(#j)"><path fill="#F67ACB" d="m260.939 96.676-4.544 6.113 3.453 4.634-1.938 1.478-5.48-7.321-7.285 9.761h26.732z"/></g><circle cx="329.577" cy="103.969" r="29.9" stroke="#343434" stroke-width=".57"/><g clip-path="url(#k)"><path fill="#F67ACB" d="m332.209 96.676-4.545 6.113 3.453 4.634-1.938 1.478-5.48-7.322-7.284 9.762h26.732z"/></g><circle cx="400.846" cy="103.969" r="29.9" stroke="#343434" stroke-width=".57"/><g clip-path="url(#l)"><path fill="#F67ACB" d="m403.478 96.676-4.545 6.113 3.453 4.634-1.938 1.478-5.48-7.322-7.284 9.762h26.732z"/></g><path fill="url(#m)" d="M0 0h314.423v218.838H0z" transform="translate(208 147.569)"/><g clip-path="url(#n)"><rect width="274.177" height=".838" x="228.123" y="315.262" fill="#000" rx=".419"/><g clip-path="url(#o)"><path stroke="#fff" stroke-linecap="round" stroke-linejoin="round" stroke-width="1.258" d="M256.1 332.737a3.85 3.85 0 0 0-4.189-.834c-.467.193-.89.477-1.247.834l-.741.74-.741-.74a3.84 3.84 0 0 0-5.436 0 3.844 3.844 0 0 0 0 5.436l.741.74 5.436 5.436 5.436-5.436.741-.74a3.844 3.844 0 0 0 0-5.436"/></g><path stroke="#fff" stroke-linecap="round" stroke-linejoin="round" stroke-width="1.258" d="M286.396 339.996a1.396 1.396 0 0 1-1.397 1.398h-8.385l-2.795 2.794v-11.179a1.397 1.397 0 0 1 1.398-1.397h9.782a1.4 1.4 0 0 1 1.397 1.397z"/></g><rect width="273.338" height="204.585" x="228.542" y="154.696" stroke="#fff" stroke-width=".838" rx="9.642"/><path fill="url(#p)" d="M0 0h314.423v57.015H0z" transform="translate(208 366.408)"/><path fill="#fff" d="M228.123 386.531h174.4v1.677h-174.4zM228.123 401.623h102.292v1.677H228.123zM259.085 44.665c-3.072 0-5.141-1.964-5.141-4.41h2.528c.021 1.13 1.087 2.153 2.675 2.153 1.463 0 2.404-.898 2.404-2.027 0-1.003-.857-1.588-2.069-1.923l-1.797-.501c-3.094-.794-3.637-2.654-3.637-3.909 0-2.55 2.236-4.284 4.89-4.284 2.634 0 4.703 1.63 4.703 4.326h-2.529c0-1.19-.899-2.048-2.236-2.048-1.233 0-2.257.836-2.257 1.965 0 .397.125 1.233 1.776 1.672l1.714.501c2.257.627 3.992 1.798 3.992 4.096 0 2.634-2.195 4.39-5.016 4.39M268.936 34.655h2.069v1.922h-2.069v7.837h-2.425v-7.837h-1.755v-1.922h1.755V31.06h2.425zM277.456 34.404c.586 0 1.213.125 1.589.334l-.481 2.3a3.05 3.05 0 0 0-1.421-.356c-1.588 0-2.466 1.588-2.466 4.326v3.406h-2.445v-9.76h2.424v2.09c.522-1.63 1.588-2.34 2.8-2.34M286.847 39.88v-5.225h2.424v9.76h-2.424v-1.526c-.502 1.233-2.048 1.776-3.03 1.776-2.508 0-3.909-1.693-3.909-4.535v-5.475h2.425v5.37c0 1.568.94 2.383 2.027 2.383 1.108 0 2.487-.627 2.487-2.529M296.211 44.665c-2.821 0-5.308-2.048-5.308-5.14 0-3.094 2.487-5.121 5.308-5.121 1.693 0 3.073.752 3.971 1.88l-1.713 1.36c-.502-.607-1.338-.983-2.216-.983-1.693 0-2.905 1.212-2.905 2.863 0 1.63 1.212 2.884 2.905 2.884.878 0 1.714-.376 2.216-.982l1.713 1.358c-.898 1.129-2.278 1.881-3.971 1.881M304.94 34.655h2.069v1.922h-2.069v7.837h-2.424v-7.837h-1.755v-1.922h1.755V31.06h2.424zM313.691 34.404c2.738 0 4.953 2.152 4.953 5.12s-2.215 5.141-4.953 5.141c-1.63 0-3.177-.836-3.887-2.173v1.922h-1.338V29.347h1.338v7.21c.731-1.337 2.236-2.152 3.887-2.152m-.105 8.987c2.07 0 3.741-1.714 3.741-3.888 0-2.152-1.671-3.824-3.741-3.824-1.943 0-3.782 1.525-3.782 3.887 0 2.257 1.755 3.825 3.782 3.825M325.128 44.665c-2.78 0-5.1-2.048-5.1-5.14 0-3.094 2.32-5.121 5.1-5.121s5.12 2.027 5.12 5.12-2.341 5.141-5.12 5.141m0-1.274c2.048 0 3.783-1.568 3.783-3.867s-1.735-3.845-3.783-3.845c-2.069 0-3.762 1.546-3.762 3.845s1.693 3.867 3.762 3.867M336.706 44.665c-2.78 0-5.1-2.048-5.1-5.14 0-3.094 2.32-5.121 5.1-5.121s5.12 2.027 5.12 5.12-2.341 5.141-5.12 5.141m0-1.274c2.048 0 3.782-1.568 3.782-3.867s-1.734-3.845-3.782-3.845c-2.069 0-3.762 1.546-3.762 3.845s1.693 3.867 3.762 3.867M346.611 44.665c-1.692 0-3.385-.982-3.552-2.842h1.233c.146.815.898 1.651 2.319 1.651 1.401 0 2.258-.731 2.258-1.714 0-.794-.544-1.316-1.547-1.567l-1.4-.334c-1.38-.335-2.487-1.046-2.487-2.676 0-1.588 1.358-2.78 3.218-2.78 1.63 0 3.135.9 3.198 2.655h-1.296c-.063-.878-.919-1.463-1.881-1.463-1.128 0-1.902.69-1.902 1.61 0 .919.795 1.316 1.505 1.483l1.442.355c1.902.46 2.487 1.61 2.487 2.738 0 1.735-1.567 2.884-3.595 2.884M354.171 34.655h2.236v1.149h-2.236v8.61h-1.317v-8.61h-1.776v-1.15h1.776v-3.657h1.317z"/><path fill="#F67ACB" d="M245.078 30.368h-8.962c-.366 0-.444.026-.653.237l-7.105 6.638c-.209.21-.235.29-.235.658v3.9q0 3.317 3.291 3.318h8.962c.365 0 .443-.027.652-.237l7.106-6.638c.209-.21.235-.29.235-.659v-3.898q0-3.32-3.291-3.32"/><g clip-path="url(#q)"><path fill="#F67ACB" d="m371.522 225.021-11.255 15.138 8.552 11.479-4.8 3.659-13.572-18.132-18.041 24.177h66.205z"/></g></g><path fill="#fff" d="M207.162 33.539c0-18.986 15.391-34.377 34.376-34.377h247.347c18.985 0 34.377 15.39 34.377 34.377h-1.677c0-18.06-14.641-32.7-32.7-32.7H241.538c-18.059 0-32.7 14.64-32.7 32.7zM522.423 545H208zm-280.885 0c-18.985 0-34.376-15.391-34.376-34.377V33.539c0-18.986 15.391-34.377 34.376-34.377V.838c-18.059 0-32.7 14.64-32.7 32.7v477.924c0 18.522 14.641 33.538 32.7 33.538M488.885-.838c18.985 0 34.377 15.39 34.377 34.377v477.084c0 18.986-15.392 34.377-34.377 34.377 18.059 0 32.7-15.016 32.7-33.538V33.539c0-18.06-14.641-32.7-32.7-32.7z" mask="url(#r)"/></g><defs><clipPath id="a"><path fill="#fff" d="M0 0h390v460H0z"/></clipPath><clipPath id="b"><path fill="#fff" d="M27 108.947C27 93.512 39.513 81 54.947 81h934.588c15.435 0 27.945 12.513 27.945 27.947v446.229H27z"/></clipPath><clipPath id="e"><path fill="#fff" d="M208 33.539C208 15.016 223.016 0 241.538 0h247.347c18.522 0 33.538 15.016 33.538 33.539v477.923c0 18.522-15.016 33.538-33.538 33.538H241.538C223.016 545 208 529.984 208 511.462z"/></clipPath><clipPath id="i"><rect width="274.177" height="205.423" x="228.123" y="430.131" fill="#fff" rx="10.062"/></clipPath><clipPath id="j"><path fill="#fff" d="M245.145 96.676h26.831v14.665h-26.831z"/></clipPath><clipPath id="k"><path fill="#fff" d="M316.415 96.676h26.831v14.665h-26.831z"/></clipPath><clipPath id="l"><path fill="#fff" d="M387.684 96.676h26.831v14.665h-26.831z"/></clipPath><clipPath id="n"><rect width="274.177" height="205.423" x="228.123" y="154.277" fill="#fff" rx="10.062"/></clipPath><clipPath id="o"><path fill="#fff" d="M241.539 329.515h16.769v16.769h-16.769z"/></clipPath><clipPath id="q"><path fill="#fff" d="M332.406 225.021h66.45v36.321h-66.45z"/></clipPath><linearGradient id="c" x1="-101.625" x2="1179.16" y1="-85.207" y2="-122.238" gradientUnits="userSpaceOnUse"><stop stop-color="#000205"/><stop offset="1" stop-color="#000205"/></linearGradient><linearGradient id="f" x1="167.169" x2="574.06" y1="-191.032" y2="-194.281" gradientUnits="userSpaceOnUse"><stop stop-color="#000205"/><stop offset="1" stop-color="#000205"/></linearGradient><linearGradient id="g" x1="-40.831" x2="364.676" y1="-25.863" y2="-49.781" gradientUnits="userSpaceOnUse"><stop stop-color="#050003"/><stop offset="1" stop-color="#060004"/></linearGradient><linearGradient id="h" x1="-40.831" x2="365.925" y1="-76.707" y2="-84.796" gradientUnits="userSpaceOnUse"><stop stop-color="#000205"/><stop offset="1" stop-color="#000205"/></linearGradient><linearGradient id="m" x1="-40.831" x2="365.925" y1="-76.707" y2="-84.796" gradientUnits="userSpaceOnUse"><stop stop-color="#000205"/><stop offset="1" stop-color="#000205"/></linearGradient><linearGradient id="p" x1="-40.831" x2="363.729" y1="-19.985" y2="-50.866" gradientUnits="userSpaceOnUse"><stop stop-color="#000205"/><stop offset="1" stop-color="#000205"/></linearGradient></defs></svg>