<svg xmlns="http://www.w3.org/2000/svg" width="117" height="79" fill="none"><path fill="#F67ACB" fill-rule="evenodd" d="M.806 0c.455-.01.831.352.84.806.2 9.699.461 19.1 4.141 28.055 6.645 16.17 19.626 28.234 35.565 35.164C61.999 73 86.802 74.712 109.16 72.616a.824.824 0 0 1 .154 1.64c-22.52 2.11-47.628.405-68.62-8.721-16.277-7.078-29.602-19.431-36.431-36.048C.45 20.205.199 10.499 0 .84A.823.823 0 0 1 .806 0" clip-rule="evenodd"/><path fill="#F67ACB" fill-rule="evenodd" d="M104.751 70.202a.824.824 0 0 1 1.08-.436c1.885.802 3.874 1.326 5.928 1.746 1.029.21 2.058.37 3.099.476q.175.017.433.027.234.01.527.03c.142.01.369.029.536.076a1 1 0 0 1 .276.127.835.835 0 0 1 .083 1.326 1 1 0 0 1-.176.121c-.08.042-.156.068-.203.082l-.554.17c-2.399.735-4.78 1.464-7.09 2.345-1.687.644-3.305 1.342-4.665 2.362a.823.823 0 1 1-.988-1.318c1.556-1.167 3.36-1.931 5.066-2.582a80 80 0 0 1 4.221-1.458 34 34 0 0 1-.894-.17c-2.108-.431-4.216-.982-6.243-1.844a.823.823 0 0 1-.436-1.08" clip-rule="evenodd"/></svg>