<svg xmlns="http://www.w3.org/2000/svg" width="40" height="40" fill="none"><g stroke="#F67ACB" stroke-linecap="round" stroke-linejoin="round" stroke-width="2.5"><path d="M33.333 17.5V8.333A3.33 3.33 0 0 0 30 5H8.333A3.33 3.33 0 0 0 5 8.333V25M25 30H5c-.92 0-1.667-.747-1.667-1.667v-1.666C3.333 25.747 4.08 25 5 25h20"/><path d="M35 35h-8.333c-.92 0-1.667-.747-1.667-1.667V19.167c0-.92.747-1.667 1.667-1.667H35c.92 0 1.667.747 1.667 1.667v14.166c0 .92-.747 1.667-1.667 1.667" clip-rule="evenodd"/><path d="M25 30h11.667"/></g></svg>