<svg xmlns="http://www.w3.org/2000/svg" width="20" height="20" fill="none"><path fill="#F67ACB" d="M10 6.147a3.853 3.853 0 1 0 0 7.707 3.853 3.853 0 0 0 0-7.707m0 6.356a2.503 2.503 0 1 1 0-5.006 2.503 2.503 0 0 1 0 5.006M14.005 6.904a.898.898 0 1 0 0-1.796.898.898 0 0 0 0 1.796"/><path fill="#F67ACB" d="M17.11 5.092A3.84 3.84 0 0 0 14.918 2.9a5.5 5.5 0 0 0-1.822-.35c-.803-.035-1.057-.045-3.092-.045s-2.296 0-3.092.045a5.5 5.5 0 0 0-1.82.35 3.83 3.83 0 0 0-2.194 2.193 5.5 5.5 0 0 0-.349 1.822c-.036.802-.047 1.056-.047 3.092s0 2.294.047 3.092c.013.623.13 1.238.35 1.822a3.84 3.84 0 0 0 2.194 2.193 5.5 5.5 0 0 0 1.821.375c.803.035 1.057.046 3.092.046s2.296 0 3.092-.046a5.5 5.5 0 0 0 1.821-.349 3.84 3.84 0 0 0 2.194-2.194c.22-.583.337-1.198.35-1.822.035-.801.046-1.055.046-3.091s0-2.295-.046-3.092a5.5 5.5 0 0 0-.351-1.848m-1.014 7.944c-.006.48-.093.956-.26 1.407a2.5 2.5 0 0 1-1.426 1.425 4.2 4.2 0 0 1-1.392.26c-.792.036-1.015.045-3.045.045-2.032 0-2.239 0-3.046-.045a4.1 4.1 0 0 1-1.39-.26 2.49 2.49 0 0 1-1.433-1.425 4.2 4.2 0 0 1-.26-1.391c-.035-.792-.043-1.015-.043-3.045s0-2.239.044-3.046c.005-.48.093-.956.259-1.406a2.49 2.49 0 0 1 1.432-1.427 4.2 4.2 0 0 1 1.391-.259c.793-.036 1.015-.046 3.046-.046s2.24 0 3.045.046c.475.006.946.094 1.392.26a2.5 2.5 0 0 1 1.426 1.426c.164.446.252.916.26 1.39.035.793.045 1.016.045 3.047 0 2.03 0 2.248-.036 3.045z"/></svg>