<svg xmlns="http://www.w3.org/2000/svg" width="208" height="26" fill="none"><path fill="#fff" d="M50.202 24.838c-4.981 0-8.336-3.185-8.336-7.15h4.1c.034 1.83 1.762 3.49 4.338 3.49 2.372 0 3.896-1.456 3.896-3.286 0-1.627-1.389-2.576-3.354-3.118l-2.914-.813c-5.016-1.288-5.897-4.304-5.897-6.337 0-4.134 3.626-6.946 7.93-6.946 4.27 0 7.624 2.643 7.624 7.014h-4.1c0-1.931-1.457-3.32-3.626-3.32-2 0-3.66 1.355-3.66 3.185 0 .643.204 1.999 2.88 2.71l2.78.814c3.659 1.016 6.472 2.914 6.472 6.641 0 4.27-3.559 7.116-8.133 7.116M66.174 8.607h3.355v3.118h-3.355v12.707h-3.93V11.725h-2.847V8.607h2.847V2.779h3.93zM79.99 8.2c.949 0 1.965.204 2.575.543l-.78 3.727a4.95 4.95 0 0 0-2.303-.576c-2.576 0-4 2.575-4 7.014v5.524h-3.964V8.607h3.931v3.389c.847-2.644 2.575-3.796 4.54-3.796M95.215 17.079V8.606h3.931v15.825h-3.93v-2.474c-.814 2-3.322 2.88-4.914 2.88-4.066 0-6.337-2.744-6.337-7.353V8.607h3.931v8.709c0 2.541 1.525 3.863 3.287 3.863 1.796 0 4.032-1.017 4.032-4.1M110.399 24.838c-4.575 0-8.607-3.32-8.607-8.336 0-5.015 4.032-8.302 8.607-8.302 2.745 0 4.981 1.22 6.438 3.05l-2.778 2.203c-.814-.983-2.169-1.593-3.592-1.593-2.745 0-4.71 1.965-4.71 4.642 0 2.643 1.965 4.677 4.71 4.677 1.423 0 2.778-.61 3.592-1.593l2.778 2.203c-1.457 1.83-3.693 3.05-6.438 3.05M124.552 8.607h3.355v3.118h-3.355v12.707h-3.931V11.725h-2.846V8.607h2.846V2.779h3.931zM138.74 8.2c4.439 0 8.031 3.49 8.031 8.302s-3.592 8.336-8.031 8.336c-2.643 0-5.15-1.355-6.303-3.524v3.118h-2.168V0h2.168v11.69c1.186-2.168 3.626-3.49 6.303-3.49m-.169 14.571c3.354 0 6.065-2.778 6.065-6.303 0-3.49-2.711-6.2-6.065-6.2-3.152 0-6.134 2.473-6.134 6.302 0 3.66 2.847 6.201 6.134 6.201M157.284 24.838c-4.507 0-8.268-3.32-8.268-8.336 0-5.015 3.761-8.302 8.268-8.302s8.302 3.287 8.302 8.302-3.795 8.336-8.302 8.336m0-2.067c3.321 0 6.133-2.541 6.133-6.269 0-3.727-2.812-6.235-6.133-6.235-3.355 0-6.1 2.508-6.1 6.235s2.745 6.27 6.1 6.27M176.056 24.838c-4.507 0-8.268-3.32-8.268-8.336 0-5.015 3.761-8.302 8.268-8.302s8.302 3.287 8.302 8.302-3.795 8.336-8.302 8.336m0-2.067c3.321 0 6.133-2.541 6.133-6.269 0-3.727-2.812-6.235-6.133-6.235-3.355 0-6.1 2.508-6.1 6.235s2.745 6.27 6.1 6.27M192.117 24.838c-2.744 0-5.489-1.592-5.76-4.608h1.999c.237 1.321 1.457 2.677 3.761 2.677 2.271 0 3.66-1.186 3.66-2.779 0-1.288-.881-2.135-2.508-2.541l-2.27-.542c-2.236-.543-4.032-1.695-4.032-4.338 0-2.575 2.202-4.507 5.218-4.507 2.643 0 5.083 1.457 5.185 4.304h-2.101c-.102-1.423-1.491-2.372-3.05-2.372-1.83 0-3.084 1.118-3.084 2.61 0 1.49 1.288 2.134 2.44 2.405l2.338.576c3.084.745 4.033 2.61 4.033 4.44 0 2.812-2.542 4.675-5.829 4.675M204.374 8.607H208v1.864h-3.626v13.96h-2.135v-13.96h-2.88V8.607h2.88v-5.93h2.135z"/><path fill="#F67ACB" d="M27.491 1.657h-14.53c-.594 0-.72.042-1.06.384L.381 12.804c-.339.341-.381.47-.381 1.067v6.322q0 5.38 5.337 5.38h14.53c.593 0 .72-.042 1.059-.384l11.52-10.762c.339-.342.38-.47.38-1.068v-6.32q.001-5.382-5.335-5.382"/></svg>