<svg xmlns="http://www.w3.org/2000/svg" width="599" height="22" fill="none"><path fill="#F67ACB" fill-rule="evenodd" d="M397.272 8.605q7.28-.298 14.561-.588l2.604-.107c19.715-.806 145.022-5.933 166.201-6.65 1.203-.041 3.011-.216 5.071-.434l1.374-.146c1.622-.174 3.301-.353 4.796-.483 1.833-.16 3.694-.276 4.845-.13.296.036.73.11 1.14.3.446.204 1.119.683 1.136 1.503.013.665-.437 1.13-.657 1.332a5 5 0 0 1-.917.636c-2.976 1.683-6.479 1.983-9.724 1.982-1.245 0-2.522-.047-3.746-.092q-.558-.02-1.099-.038c-1.58-.053-3.061-.078-4.454.01-17.18 1.078-34.378 2.035-51.592 2.784-21.111.92-47.668 1.677-77.569 2.3a2 2 0 0 1-.03.151 3.78 3.78 0 0 1-1.288 2.042c-.659.546-1.463.875-2.277 1.067-1.559.367-3.393.284-5.072.105-1.298-.138-2.694-.36-4.01-.567q-.621-.1-1.211-.19c-1.715-.262-3.182-.446-4.335-.434-12.64.13-44.901.111-60.747.102l-6.234-.003q-12.504.533-25.013 1.071C247.453 18.06 155.7 22 64.01 22c-1.045 0-1.892-.684-1.892-1.528 0-.843.847-1.527 1.892-1.527 74.366 0 148.761-2.594 223.127-5.674a13984 13984 0 0 0-145.584 1.574c-.99.016-1.818-.586-1.918-1.368-53.478.075-97.402-.015-120.518-.131-6.414-.032-11.231-.066-14.207-.1a204 204 0 0 1-3.082-.049 16 16 0 0 1-.363-.014 4 4 0 0 1-.338-.032 4 4 0 0 1-.561-.162c-.66-.481-.806-1.998-.098-2.64.225-.097.554-.19.65-.206.122-.02.233-.027.267-.029h.002c.1-.007.224-.011.347-.015 1.963-.057 12.266-.097 32.75-.097l33.64.003c71.296.011 142.585.022 213.873-.4 39.897-.237 51.167-.36 66.653-.53 10.563-.117 23.089-.254 48.001-.464z" clip-rule="evenodd"/></svg>